<svg xmlns="http://www.w3.org/2000/svg" viewBox="0 0 67.31 67.31"><defs><style>.cls-1{fill:none;stroke:#218791;stroke-miterlimit:10;}.cls-2,.cls-3{fill:#fff;}.cls-3{fill-rule:evenodd;}</style></defs><g id="Layer_2" data-name="Layer 2"><g id="Layer_3" data-name="Layer 3"><circle class="cls-1" cx="33.66" cy="33.66" r="33.16"/><path class="cls-2" d="M31.64,41.37a8.29,8.29,0,1,0-5-3.94,8.25,8.25,0,0,0,5,3.94Zm5.74-1.72a7.16,7.16,0,1,1,3.4-4.29,7.12,7.12,0,0,1-3.4,4.29Z"/><path class="cls-3" d="M33.35,35.37A2,2,0,1,0,32,32.86a2,2,0,0,0,1.36,2.51Z"/><polygon class="cls-3" points="60.86 41.92 60.86 41.92 44.58 37.27 44.58 37.27 44.16 37.15 44.38 36.38 44.79 36.5 44.68 36.89 60.56 41.42 60.67 41.03 61.08 41.15 60.87 41.92 60.86 41.92 60.86 41.92"/><polygon class="cls-3" points="23.13 31.15 23.13 31.15 6.84 26.5 6.84 26.5 6.43 26.39 6.65 25.62 7.06 25.73 6.95 26.12 22.82 30.65 22.94 30.26 23.35 30.38 23.13 31.15 23.13 31.15 23.13 31.15"/><path class="cls-2" d="M66.27,31.45c.61,2.84.13,7-1,11s-3,8.25-5.08,10.67l.5.42c2.1-2.49,4-6.65,5.2-10.91s1.65-8.39,1-11.34l-.63.14Z"/><path class="cls-2" d="M6.79,14.12c-2.1,2.18-3.88,6-5.08,10.16S-.11,33.07.37,36.3L1,36.2c-.46-3.14.11-7.57,1.32-11.74s2.94-7.8,5-9.89l-.51-.45Z"/><path class="cls-2" d="M61.39,31.8c.52,2.42.11,5.94-.85,9.38a25.8,25.8,0,0,1-4.32,9.07l.45.33a26,26,0,0,0,4.4-9.25c1-3.52,1.4-7.14.86-9.65l-.54.12Z"/><path class="cls-2" d="M10.8,17.12C9,19,7.52,22.2,6.5,25.71a25.85,25.85,0,0,0-1.14,10.2l.54-.06A25.58,25.58,0,0,1,7,25.86c1-3.43,2.5-6.63,4.22-8.41l-.45-.33Z"/><polygon class="cls-2" points="66.86 31.02 61.33 31.49 61.45 32.12 66.97 31.66 66.86 31.02 66.86 31.02"/><polygon class="cls-2" points="60.69 53.56 56.22 50.25 56.63 49.74 61.09 53.05 60.69 53.56 60.69 53.56"/><polygon class="cls-2" points="6.79 14.13 11.24 17.45 10.8 17.92 6.37 14.62 6.79 14.13 6.79 14.13"/><polygon class="cls-2" points="0.39 36.5 5.91 35.84 5.83 35.2 0.31 35.86 0.39 36.5 0.39 36.5"/></g></g></svg>