<svg xmlns="http://www.w3.org/2000/svg" viewBox="0 0 69.33 69.33"><defs><style>.cls-1,.cls-5{fill:none;}.cls-1{stroke:#218791;stroke-width:3px;}.cls-1,.cls-2{stroke-miterlimit:10;}.cls-2{fill:#218791;stroke:#fff;stroke-width:0.5px;}.cls-3,.cls-4{fill:#fff;}.cls-3{fill-rule:evenodd;}</style></defs><g id="Layer_2" data-name="Layer 2"><g id="Layer_3" data-name="Layer 3"><circle class="cls-1" cx="34.67" cy="34.67" r="33.16"/><polygon class="cls-2" points="42.39 14.12 36.08 4.18 29.74 14.12 35.95 14.12 35.87 23.27 36.72 23.28 36.79 14.12 42.39 14.12"/><polyline class="cls-3" points="61.45 34.76 61.45 34.38 61.86 34.38 61.86 35.14 61.86 35.14 61.86 35.14 61.86 35.14 45.66 35.13 45.66 35.14 45.25 35.14 45.25 34.77 45.66 34.76"/><polygon class="cls-3" points="24.33 35.13 24.33 35.13 8.12 35.12 8.12 35.12 7.71 35.12 7.71 34.35 8.13 34.35 8.12 34.74 24.33 34.75 24.33 35.13 24.33 35.13 24.33 35.13"/><path class="cls-4" d="M64.09,24.09c1.31,2.46,2,6.39,2,10.41a28.79,28.79,0,0,1-1.88,11.14l.57.26a29.61,29.61,0,0,0,1.93-11.41c0-4.1-.68-8.14-2-10.69l-.55.29Z"/><path class="cls-4" d="M4.83,23.75c-1.36,2.54-2,6.56-2,10.67a29.53,29.53,0,0,0,1.92,11.4l.57-.25A28.85,28.85,0,0,1,3.44,34.42c0-4,.66-8,2-10.4l-.59-.27Z"/><path class="cls-4" d="M59.7,25.7c1.11,2.08,1.65,5.43,1.67,8.84A24.53,24.53,0,0,1,59.78,44l.49.19a25.13,25.13,0,0,0,1.63-9.67c0-3.49-.58-6.93-1.74-9.09l-.46.25Z"/><path class="cls-4" d="M9.31,25.45c-1.16,2.16-1.69,5.54-1.71,9a24.81,24.81,0,0,0,1.63,9.68l.48-.2a24.54,24.54,0,0,1-1.58-9.48c0-3.41.56-6.76,1.68-8.85l-.5-.18Z"/><polygon class="cls-4" points="64.53 23.54 59.55 25.42 59.84 25.98 64.79 24.1 64.53 23.54 64.53 23.54"/><polygon class="cls-4" points="64.75 45.9 59.77 44.02 60.01 43.45 64.99 45.32 64.75 45.9 64.75 45.9"/><polygon class="cls-4" points="4.83 23.75 9.8 25.64 9.52 26.18 4.58 24.32 4.83 23.75 4.83 23.75"/><polygon class="cls-4" points="4.81 46.01 9.71 43.96 9.48 43.39 4.57 45.44 4.81 46.01 4.81 46.01"/><rect id="_Slice_" data-name="&lt;Slice&gt;" class="cls-5" x="46.46" y="33.02" width="1" height="2" transform="translate(-7.52 14.17) rotate(-15.9)"/></g></g></svg>