<svg xmlns="http://www.w3.org/2000/svg" viewBox="0 0 67.31 67.31"><defs><style>.cls-1{fill:none;stroke:#218791;}.cls-1,.cls-2{stroke-miterlimit:10;}.cls-2{fill:#218791;stroke:#fff;stroke-width:0.5px;}.cls-3,.cls-4{fill:#fff;}.cls-3{fill-rule:evenodd;}</style></defs><g id="Layer_2" data-name="Layer 2"><g id="Layer_3" data-name="Layer 3"><circle class="cls-1" cx="33.66" cy="33.66" r="33.16"/><polygon class="cls-2" points="49.72 18.06 48.07 6.17 38.6 13.54 43.74 15.63 39.83 23.39 40.59 23.77 44.52 15.95 49.72 18.06"/><polygon class="cls-3" points="60.86 41.92 60.86 41.92 44.58 37.27 44.58 37.27 44.16 37.15 44.38 36.38 44.79 36.5 44.68 36.89 60.56 41.42 60.67 41.03 61.08 41.15 60.87 41.92 60.86 41.92 60.86 41.92"/><polygon class="cls-3" points="23.13 31.15 23.13 31.15 6.84 26.5 6.84 26.5 6.43 26.39 6.65 25.62 7.06 25.73 6.95 26.12 22.82 30.65 22.94 30.26 23.35 30.38 23.13 31.15 23.13 31.15 23.13 31.15"/><path class="cls-4" d="M66.27,31.45c.61,2.84.13,7-1,11s-3,8.25-5.08,10.67l.5.42c2.1-2.49,4-6.65,5.2-10.91s1.65-8.39,1-11.34l-.63.14Z"/><path class="cls-4" d="M6.79,14.12c-2.1,2.18-3.88,6-5.08,10.16S-.11,33.07.37,36.3L1,36.2c-.46-3.14.11-7.57,1.32-11.74s2.94-7.8,5-9.89l-.51-.45Z"/><path class="cls-4" d="M61.39,31.8c.52,2.42.11,5.94-.85,9.38a25.8,25.8,0,0,1-4.32,9.07l.45.33a26,26,0,0,0,4.4-9.25c1-3.52,1.4-7.14.86-9.65l-.54.12Z"/><path class="cls-4" d="M10.8,17.12C9,19,7.52,22.2,6.5,25.71a25.85,25.85,0,0,0-1.14,10.2l.54-.06A25.58,25.58,0,0,1,7,25.86c1-3.43,2.5-6.63,4.22-8.41l-.45-.33Z"/><polygon class="cls-4" points="66.86 31.02 61.33 31.49 61.45 32.12 66.97 31.66 66.86 31.02 66.86 31.02"/><polygon class="cls-4" points="60.69 53.56 56.22 50.25 56.63 49.74 61.09 53.05 60.69 53.56 60.69 53.56"/><polygon class="cls-4" points="6.79 14.13 11.24 17.45 10.8 17.92 6.37 14.62 6.79 14.13 6.79 14.13"/><polygon class="cls-4" points="0.39 36.5 5.91 35.84 5.83 35.2 0.31 35.86 0.39 36.5 0.39 36.5"/><path class="cls-4" d="M30.32,28H26.69l-.55,3.58a2,2,0,0,1,.5,0,3.7,3.7,0,0,1,3.69,4.09c0,2.67-1.69,4.59-4.08,4.59A4.42,4.42,0,0,1,24,39.58l.36-1.27a4,4,0,0,0,1.87.53c1.37,0,2.56-1.05,2.56-3.1a2.75,2.75,0,0,0-3.05-3,6.67,6.67,0,0,0-1.06.07l.87-6.24h4.81Z"/><path class="cls-4" d="M36.56,30.48c0,2.84-1.24,4.11-2.52,4.11-1.48,0-2.53-1.55-2.53-4.07s1.11-4.13,2.54-4.13S36.56,28,36.56,30.48Zm-3.84,0c0,1.41.27,3.12,1.32,3.12s1.31-1.72,1.31-3.11-.24-3.13-1.32-3.13S32.72,29.12,32.72,30.49Zm.79,9.68,7.06-13.78h1l-7,13.78Zm10.09-4.1c0,2.82-1.24,4.08-2.53,4.08-1.47,0-2.53-1.54-2.53-4S39.65,32,41.08,32,43.6,33.6,43.6,36.07Zm-3.84,0c0,1.4.32,3.09,1.31,3.09s1.31-1.7,1.31-3.08S42.14,33,41.07,33,39.76,34.71,39.76,36.08Z"/></g></g></svg>