<svg xmlns="http://www.w3.org/2000/svg" viewBox="0 0 43.47 34.75"><defs><style>.cls-1,.cls-2{fill:#fff;stroke:#fff;stroke-miterlimit:10;opacity:0.9;}.cls-1{stroke-width:0.36px;}.cls-2{stroke-width:0.42px;}</style></defs><g id="Layer_2" data-name="Layer 2"><g id="Layer_2-2" data-name="Layer 2"><polygon class="cls-1" points="21.21 19.39 10.73 29.86 0.26 19.39 4.56 15.08 10.75 21.27 16.92 15.1 21.21 19.39"/><polygon class="cls-1" points="16.92 0.27 10.75 6.45 4.56 0.26 0.26 4.56 10.73 15.04 21.21 4.56 16.92 0.27"/><polygon class="cls-1" points="43.21 19.39 32.73 29.86 22.26 19.39 26.56 15.08 32.75 21.27 38.93 15.1 43.21 19.39"/><polygon class="cls-1" points="38.93 0.27 32.75 6.45 26.56 0.26 22.26 4.56 32.73 15.04 43.21 4.56 38.93 0.27"/><rect class="cls-2" x="0.9" y="31.95" width="42" height="2.59"/></g></g></svg>