<svg xmlns="http://www.w3.org/2000/svg" viewBox="0 0 43.47 34.73"><defs><style>.cls-1,.cls-2{fill:#87b821;stroke:#87b821;stroke-miterlimit:10;opacity:0.9;}.cls-1{stroke-width:0.36px;}.cls-2{stroke-width:0.42px;}</style></defs><g id="Layer_2" data-name="Layer 2"><g id="Layer_2-2" data-name="Layer 2"><polygon class="cls-1" points="0.26 10.73 10.73 0.26 21.21 10.73 16.91 15.04 10.72 8.85 4.54 15.02 0.26 10.73"/><polygon class="cls-1" points="4.54 29.85 10.72 23.67 16.91 29.86 21.21 25.56 10.73 15.08 0.26 25.56 4.54 29.85"/><polygon class="cls-1" points="22.26 10.73 32.74 0.26 43.21 10.73 38.91 15.04 32.72 8.85 26.55 15.02 22.26 10.73"/><polygon class="cls-1" points="26.55 29.85 32.72 23.67 38.91 29.86 43.21 25.56 32.74 15.08 22.26 25.56 26.55 29.85"/><rect class="cls-2" x="0.74" y="31.95" width="42" height="2.57"/></g></g></svg>