<svg xmlns="http://www.w3.org/2000/svg" viewBox="0 0 43.05 34.77"><defs><style>.cls-1,.cls-2{fill:#fff;stroke:#fff;stroke-miterlimit:10;opacity:0.9;}.cls-1{stroke-width:0.36px;}.cls-2{stroke-width:0.42px;}</style></defs><g id="Layer_2" data-name="Layer 2"><g id="Layer_2-2" data-name="Layer 2"><polygon class="cls-1" points="0.26 10.73 10.73 0.26 21.21 10.73 16.91 15.04 10.72 8.85 4.54 15.02 0.26 10.73"/><polygon class="cls-1" points="4.54 29.85 10.72 23.67 16.91 29.86 21.21 25.56 10.73 15.08 0.26 25.56 4.54 29.85"/><polygon class="cls-1" points="42.79 19.39 32.31 29.86 21.84 19.39 26.14 15.08 32.33 21.27 38.5 15.1 42.79 19.39"/><polygon class="cls-1" points="38.5 0.27 32.33 6.45 26.14 0.26 21.84 4.56 32.31 15.04 42.79 4.56 38.5 0.27"/><rect class="cls-2" x="0.57" y="31.95" width="42" height="2.6"/></g></g></svg>