<svg xmlns="http://www.w3.org/2000/svg" xmlns:xlink="http://www.w3.org/1999/xlink" viewBox="0 0 105 105"><defs><style>.cls-1{isolation:isolate;}.cls-2{fill:url(#linear-gradient);}.cls-3{fill:#c5c7c9;}.cls-4{fill:url(#radial-gradient);}.cls-5{fill:#608d2b;}.cls-6{opacity:0.8;mix-blend-mode:multiply;}.cls-7{fill:url(#linear-gradient-2);}.cls-10,.cls-8,.cls-9{fill:#fff;}.cls-10,.cls-13,.cls-9{stroke:#fff;}.cls-10,.cls-13,.cls-14,.cls-9{stroke-miterlimit:10;}.cls-9{stroke-width:0.47px;}.cls-10{stroke-width:0.71px;}.cls-11{fill:#edbb21;}.cls-12{fill:#e2bd22;}.cls-13{fill:none;stroke-width:1.89px;stroke-dasharray:1.89 0.95;}.cls-14{fill:#2c343d;stroke:#e6e7e8;stroke-width:0.39px;}</style><linearGradient id="linear-gradient" x1="52.5" y1="13.5" x2="52.5" y2="103.69" gradientUnits="userSpaceOnUse"><stop offset="0" stop-color="#fff"/><stop offset="1" stop-color="#dddfe0"/></linearGradient><radialGradient id="radial-gradient" cx="50.98" cy="23.15" r="64.41" gradientTransform="translate(0 -4.06)" gradientUnits="userSpaceOnUse"><stop offset="0" stop-color="#e5e653"/><stop offset="1" stop-color="#80b539"/></radialGradient><linearGradient id="linear-gradient-2" x1="48.12" y1="44.52" x2="73.05" y2="115.55" gradientUnits="userSpaceOnUse"><stop offset="0" stop-color="#fff"/><stop offset="1" stop-color="#80b539"/></linearGradient></defs><g class="cls-1"><g id="Layer_2" data-name="Layer 2"><g id="Layer_3" data-name="Layer 3"><g id="Bullet_1_-_Green" data-name="Bullet 1 - Green"><circle class="cls-2" cx="52.5" cy="52.5" r="51.95"/><path class="cls-3" d="M52.5,5.15A51.41,51.41,0,1,1,1.09,56.56,51.47,51.47,0,0,1,52.5,5.15m0-1.09A52.5,52.5,0,1,0,105,56.56,52.5,52.5,0,0,0,52.5,4.06Z" transform="translate(0 -4.06)"/></g><circle class="cls-4" cx="52.5" cy="52.02" r="43.08"/><path class="cls-5" d="M52.5,14.28a41.8,41.8,0,1,1-41.8,41.8,41.84,41.84,0,0,1,41.8-41.8m0-2.56A44.36,44.36,0,1,0,96.86,56.08,44.36,44.36,0,0,0,52.5,11.72Z" transform="translate(0 -4.06)"/><g class="cls-6"><path class="cls-7" d="M91.68,36.27C82.83,52,62.24,64.59,37,67.87a91.45,91.45,0,0,1-27.59-.5,44.34,44.34,0,1,0,82.28-31.1Z" transform="translate(0 -4.06)"/></g><path class="cls-8" d="M64.42,68.68a4,4,0,0,0-2-3.45H63a.88.88,0,0,0,0-1.76h-1a.88.88,0,0,0-.64.27l-2-3.42a.54.54,0,0,0-.46-.26H47a.54.54,0,0,0-.46.26l-2,3.42a.85.85,0,0,0-.63-.27H42.89a.88.88,0,0,0,0,1.76h.52a4,4,0,0,0-2,3.45,4.6,4.6,0,0,0,.08.84v5.72a.27.27,0,0,0,.27.26h3.66a.27.27,0,0,0,.27-.26V72.7H60.14v2.54a.26.26,0,0,0,.26.26h3.66a.27.27,0,0,0,.27-.26V69.52A3.86,3.86,0,0,0,64.42,68.68Zm-17.1-7.57H58.54l2.06,3.56H45.26ZM58.78,70a1.2,1.2,0,0,1-1.17-.94H48.25a1.2,1.2,0,0,1-1.17.94H44a1.2,1.2,0,1,1,0-2.4h3.1a1.2,1.2,0,0,1,1.17.93h9.36a1.2,1.2,0,0,1,1.17-.93h3.1a1.2,1.2,0,0,1,0,2.4Z" transform="translate(0 -4.06)"/><path class="cls-9" d="M57.66,55.1l-1.14,1.14a5.66,5.66,0,0,0-8,0L47.38,55.1A7.27,7.27,0,0,1,57.66,55.1Z" transform="translate(0 -4.06)"/><path class="cls-9" d="M62.8,50.3l-1.14,1.14a12.94,12.94,0,0,0-18.28,0L42.24,50.3A14.55,14.55,0,0,1,62.8,50.3Z" transform="translate(0 -4.06)"/><path class="cls-10" d="M67.94,45.24,66.8,46.38a20.21,20.21,0,0,0-28.55,0L37.1,45.24A21.84,21.84,0,0,1,67.94,45.24Z" transform="translate(0 -4.06)"/><path class="cls-11" d="M71.15,70.28c-4.06,5.86-10.82,10.18-18.5,10.18a23.3,23.3,0,0,1-23-23,23.3,23.3,0,0,1,23-23c7.74,0,14.54,4.37,18.59,10.31A3.1,3.1,0,0,1,72.5,43a.18.18,0,0,0,.07-.05l.38-.2.15-.07.36-.11.18-.05a3.43,3.43,0,0,1,.56,0h0a2.59,2.59,0,0,1,.63.08,2.46,2.46,0,0,1,.29.09l.28.1.1,0A27.18,27.18,0,1,0,76,71.38a3,3,0,0,1-4.87-1.1Z" transform="translate(0 -4.06)"/><path class="cls-12" d="M72.57,43a.18.18,0,0,1-.07.05A.18.18,0,0,0,72.57,43Z" transform="translate(0 -4.06)"/><path class="cls-12" d="M74.21,42.49a2.59,2.59,0,0,1,.63.08,2.59,2.59,0,0,0-.63-.08Z" transform="translate(0 -4.06)"/><path class="cls-12" d="M75.41,42.76l-.28-.1Z" transform="translate(0 -4.06)"/><path class="cls-12" d="M73.1,42.7l-.15.07Z" transform="translate(0 -4.06)"/><path class="cls-12" d="M73.64,42.54l-.18.05Z" transform="translate(0 -4.06)"/><path class="cls-8" d="M74.6,43.38a3,3,0,1,0,3,3.07A3,3,0,0,0,74.6,43.38Zm1.84,3.06a1.91,1.91,0,0,1-1.9,1.91,1.87,1.87,0,0,1-1.33-.59,1.93,1.93,0,0,1-.57-1.37,1.9,1.9,0,0,1,1.9-1.9h0a1.75,1.75,0,0,1,.33,0h0a1.91,1.91,0,0,1,.67.28h0a1.39,1.39,0,0,1,.19.15l.11.09.06.09a2,2,0,0,1,.45.9v0a1.63,1.63,0,0,1,0,.31v0Z" transform="translate(0 -4.06)"/><path class="cls-8" d="M74.23,65.1a3,3,0,1,0,3,3.07A3,3,0,0,0,74.23,65.1Zm.14,5h-.19a1.93,1.93,0,0,1,0-3.86h.15a1.93,1.93,0,0,1,0,3.86Z" transform="translate(0 -4.06)"/><path class="cls-13" d="M75.41,66.21c1.78-5.54,2.41-11.57.4-17.38" transform="translate(0 -4.06)"/><path class="cls-8" d="M18,64.27l-1.41,0-.19-1.12,6.21.28.24,1.39L17,67l-.19-1.13,1.33-.49Zm1.07.82,1.22-.41,1.33-.43v0l-1.4,0h-1.3Z" transform="translate(0 -4.06)"/><path class="cls-8" d="M23.47,67.54,19.7,68.72c-.86.27-1,.6-.95.9s.41.48,1.29.21l3.77-1.19.35,1.13-3.57,1.12c-1.49.47-2.47.16-2.82-1s.31-1.94,1.76-2.4l3.58-1.12Z" transform="translate(0 -4.06)"/><path class="cls-8" d="M23.84,71.75l-.45-1,1-.46,1.4,3-1,.46-.45-1-4.52,2.1-.5-1.07Z" transform="translate(0 -4.06)"/><path class="cls-8" d="M25.44,78.38c-2,1.21-3.16,1-3.77.05-.72-1.16.23-2.39,1.64-3.28s3-1.09,3.69,0S26.62,77.64,25.44,78.38ZM24,76.2c-1.17.73-1.63,1.32-1.38,1.72s1.13.1,2.17-.55,1.64-1.22,1.36-1.67S25.06,75.5,24,76.2Z" transform="translate(0 -4.06)"/><path class="cls-8" d="M27.8,82.79c.42-.4,1-1,1.48-1.37l0,0c-.56.35-1.23.73-1.66.95l-2,1.05-.55-.63L26.35,81c.29-.41.75-1,1.18-1.54v0c-.51.43-1.11.91-1.59,1.28L24.28,82l-.66-.75,4.84-3.7.83.93L28,80.31c-.46.64-.87,1.2-1.31,1.74h0c.57-.38,1.17-.73,1.86-1.12l2-1.1.82.93L27,85.07l-.7-.79Z" transform="translate(0 -4.06)"/><path class="cls-8" d="M29.92,85.77l-1.09.91L28,86l4.87-3.86,1.09.89L31,88.42l-.88-.72.68-1.24Zm1.34-.08.65-1.11c.19-.33.52-.85.72-1.2h0l-1,.93-1,.84Z" transform="translate(0 -4.06)"/><path class="cls-8" d="M35,85.11l-.9-.58.6-.92,2.78,1.8-.59.92-.9-.58-2.71,4.19-1-.64Z" transform="translate(0 -4.06)"/><path class="cls-8" d="M38.86,89.9l-1.24-.61-.72,1.48,1.4.69-.45.92-2.45-1.2,2.66-5.46,2.36,1.15-.45.92-1.3-.64-.62,1.26,1.24.61Z" transform="translate(0 -4.06)"/><path class="cls-8" d="M41.24,87.32a5,5,0,0,1,1.16.26,2.33,2.33,0,0,1,1.43,1,3.16,3.16,0,0,1,0,2.57,3.38,3.38,0,0,1-1.61,2.18,2.55,2.55,0,0,1-1.94,0,9,9,0,0,1-.9-.37Zm-.49,5.16a.64.64,0,0,0,.19.08c.54.18,1.18-.19,1.71-1.78.4-1.19.33-2-.34-2.23a.69.69,0,0,0-.24,0Z" transform="translate(0 -4.06)"/><path class="cls-8" d="M47,89a5.55,5.55,0,0,1,1.2,0,2.33,2.33,0,0,1,1.6.75,3.14,3.14,0,0,1,.47,2.52,3.4,3.4,0,0,1-1.15,2.46,2.62,2.62,0,0,1-1.91.35,7.88,7.88,0,0,1-1-.19Zm.53,5.16.21,0c.56.07,1.12-.42,1.33-2.08.16-1.24-.07-2-.78-2.12a.91.91,0,0,0-.23,0Z" transform="translate(0 -4.06)"/><path class="cls-8" d="M51.39,89.44a6.16,6.16,0,0,1,1.28-.15,2.36,2.36,0,0,1,1.62.43,1.57,1.57,0,0,1,.5,1.25,1.62,1.62,0,0,1-.9,1.54h0c.41.16.63.54.76,1.2a9,9,0,0,0,.42,1.64l-1.23,0a7.58,7.58,0,0,1-.33-1.45c-.12-.75-.32-1-.71-1h-.17l0,2.42-1.17,0Zm1.22,2.63h.21a.84.84,0,0,0,.79-1c0-.52-.23-.88-.75-.88a.81.81,0,0,0-.29,0Z" transform="translate(0 -4.06)"/><path class="cls-8" d="M56.79,89l.78,6-1.17.15-.77-6Z" transform="translate(0 -4.06)"/><path class="cls-8" d="M60.13,94.56,57.4,89l1.26-.31,1,2.46c.25.61.55,1.31.79,2h0c-.09-.72-.16-1.46-.22-2.15l-.2-2.63,1.25-.3.08,6.24Z" transform="translate(0 -4.06)"/><path class="cls-8" d="M63,87.39l2,5.73-1.11.4-2-5.73Z" transform="translate(0 -4.06)"/><path class="cls-8" d="M66.67,92.5,64,87l1-.47,1.89,1.74c.37.34,1,.91,1.36,1.31h0c-.31-.55-.85-1.47-1.34-2.48l-.59-1.21.92-.45,2.68,5.47-1,.47-1.84-1.68a17.59,17.59,0,0,1-1.36-1.37h0c.3.53.75,1.36,1.28,2.46l.6,1.23Z" transform="translate(0 -4.06)"/><path class="cls-8" d="M74.21,87.93a4.27,4.27,0,0,1-.91.88,2.13,2.13,0,0,1-1.67.41,3.37,3.37,0,0,1-2-1.59c-1.23-1.84-.71-3.31.35-4a2.29,2.29,0,0,1,.92-.4l.4,1a1.51,1.51,0,0,0-.64.28c-.66.45-.88,1.26,0,2.57s1.58,1.33,2,1a.59.59,0,0,0,.18-.16L72,86.65l-.44.31-.55-.8,1.34-.92Z" transform="translate(0 -4.06)"/><path class="cls-8" d="M76.08,85a2.43,2.43,0,0,0,.87-.53.71.71,0,0,0,.11-1.08c-.31-.31-.66-.27-1.25-.15a2.07,2.07,0,0,1-2-.41,1.74,1.74,0,0,1,.11-2.61,2,2,0,0,1,.83-.51l.58.85a1.53,1.53,0,0,0-.69.39.65.65,0,0,0-.09,1c.25.26.52.27,1.26.1a2,2,0,0,1,2,.47,1.81,1.81,0,0,1-.12,2.71,2.58,2.58,0,0,1-1,.64Z" transform="translate(0 -4.06)"/><path class="cls-8" d="M80.42,82.16,78.6,80.71,74.84,79.4l.78-1L77,79c.38.16.81.35,1.21.56h0c-.3-.34-.58-.69-.85-1l-.89-1.17.76-1,2,3.38,1.85,1.48Z" transform="translate(0 -4.06)"/><path class="cls-8" d="M81.53,78.7a2.35,2.35,0,0,0,.72-.72c.29-.47.19-.86-.15-1.07s-.7-.11-1.25.15a2.08,2.08,0,0,1-2,.07,1.75,1.75,0,0,1-.51-2.57,2,2,0,0,1,.69-.69l.76.7a1.43,1.43,0,0,0-.58.54.67.67,0,0,0,.14,1c.31.19.58.14,1.25-.21a2,2,0,0,1,2,0,1.82,1.82,0,0,1,.52,2.67,2.47,2.47,0,0,1-.82.85Z" transform="translate(0 -4.06)"/><path class="cls-8" d="M80.55,72.83l-.45,1-1-.47,1.41-3,1,.47-.46,1,4.52,2.12L85.07,75Z" transform="translate(0 -4.06)"/><path class="cls-8" d="M84.79,68.35l-.44,1.31,1.57.52.49-1.47,1,.32-.86,2.59-5.77-1.93.83-2.49,1,.32L82.1,68.9l1.32.44.44-1.3Z" transform="translate(0 -4.06)"/><path class="cls-8" d="M86.41,63.43c-.58-.07-1.35-.17-2-.29v0c.63.22,1.33.51,1.78.7l2,.9-.15.82-2.18.12c-.51,0-1.28.06-1.94,0v0l2,.45,2.06.47-.17,1-5.91-1.49L82.13,65l2.25-.09c.79,0,1.47-.06,2.17,0v0c-.65-.21-1.3-.46-2-.75l-2.08-.86L82.66,62l6,.71-.19,1Z" transform="translate(0 -4.06)"/><path class="cls-14" d="M30.93,35.41a4.13,4.13,0,0,1-.8,1.15c-1.62,1.71-3.7,1.31-5.46-.35-2.33-2.2-1.92-4.47-.7-5.77a2.89,2.89,0,0,1,1-.76l.81,1.18a1.87,1.87,0,0,0-.7.49c-.7.74-.73,2,.8,3.41s2.64,1.33,3.38.54a3,3,0,0,0,.5-.72Z" transform="translate(0 -4.06)"/><path class="cls-14" d="M33,28.34c2,2.53,1.8,4.31.42,5.39-1.64,1.29-3.55.19-5-1.66s-1.88-4-.27-5.29S31.76,26.8,33,28.34Zm-3.08,2.6c1.19,1.52,2.1,2.06,2.67,1.61s.05-1.64-1-3C30.61,28.37,29.59,27.46,29,28S28.75,29.5,29.88,30.94Z" transform="translate(0 -4.06)"/><path class="cls-14" d="M39.05,25c1.51,2.83,1,4.56-.52,5.38-1.84,1-3.52-.44-4.62-2.5s-1.15-4.31.65-5.26C36.52,21.57,38.14,23.27,39.05,25Zm-3.48,2c.9,1.7,1.71,2.39,2.35,2.05s.33-1.61-.48-3.13c-.7-1.32-1.55-2.4-2.27-2S34.71,25.4,35.57,27Z" transform="translate(0 -4.06)"/><path class="cls-14" d="M39.31,20.64A9.89,9.89,0,0,1,41,19.91a3.68,3.68,0,0,1,2.59-.14A2.38,2.38,0,0,1,45,21.3a2.75,2.75,0,0,1-.12,2.19A3.37,3.37,0,0,1,43,25l-.35.1,1,3-1.7.55Zm2.88,3.14a2,2,0,0,0,.29-.07A1.23,1.23,0,0,0,43.29,22c-.22-.7-.71-1.16-1.5-.91a1.57,1.57,0,0,0-.41.2Z" transform="translate(0 -4.06)"/><path class="cls-14" d="M50.8,22.7l-2.08.3.34,2.29,2.34-.35.21,1.42L47.49,27l-1.23-8.43,4-.58.21,1.42-2.19.33.28,1.93,2.08-.3Z" transform="translate(0 -4.06)"/><path class="cls-14" d="M52.72,17.91a11.12,11.12,0,0,1,2-.1,3.79,3.79,0,0,1,2.44.71,2.09,2.09,0,0,1,.67,1.79,2.23,2.23,0,0,1-1.48,2.08v0c.61.25.92.8,1.06,1.72a13.36,13.36,0,0,0,.52,2.33L56,26.41a10.22,10.22,0,0,1-.4-2.05c-.12-1.07-.41-1.37-1-1.39h-.27l-.1,3.39-1.79-.05Zm1.67,3.77h.33A1.2,1.2,0,0,0,56,20.41c0-.73-.28-1.26-1.08-1.3a1.37,1.37,0,0,0-.43,0Z" transform="translate(0 -4.06)"/><path class="cls-14" d="M60.36,25.05l-.84,1.8-1.69-.4,3.88-7.83,2.09.49-.19,8.69-1.7-.39.06-2Zm1.75-.91.1-1.81c0-.52.11-1.38.15-1.95h0c-.23.53-.56,1.36-.77,1.81l-.73,1.66Z" transform="translate(0 -4.06)"/><path class="cls-14" d="M67.15,21.8l-1.5-.62.58-1.42,4.68,1.93-.59,1.42-1.51-.62-2.66,6.45-1.66-.69Z" transform="translate(0 -4.06)"/><path class="cls-14" d="M74.14,23.58l-4.43,7.28-1.53-.93,4.42-7.28Z" transform="translate(0 -4.06)"/><path class="cls-14" d="M71.84,32.29l3.75-7.91,1.54,1.25-1.8,3.26c-.45.82-1,1.74-1.49,2.6l0,0c.73-.71,1.49-1.41,2.21-2.05L78.86,27l1.53,1.24-7,5.29Z" transform="translate(0 -4.06)"/><path class="cls-14" d="M80.63,35.76l-1.36-1.59-1.75,1.5,1.54,1.8L78,38.4l-2.71-3.16,6.46-5.54,2.61,3-1.09.94L81.8,32l-1.49,1.27,1.37,1.59Z" transform="translate(0 -4.06)"/></g></g></g></svg>