<svg xmlns="http://www.w3.org/2000/svg" xmlns:xlink="http://www.w3.org/1999/xlink" viewBox="0 0 105 105"><defs><style>.cls-1{isolation:isolate;}.cls-2{fill:url(#linear-gradient);}.cls-3{fill:#c5c7c9;}.cls-4{fill:url(#radial-gradient);}.cls-5{fill:#8c98a0;}.cls-6{opacity:0.8;mix-blend-mode:multiply;}.cls-7{fill:url(#linear-gradient-2);}.cls-10,.cls-8,.cls-9{fill:#fff;}.cls-10,.cls-13,.cls-9{stroke:#fff;}.cls-10,.cls-13,.cls-14,.cls-9{stroke-miterlimit:10;}.cls-9{stroke-width:0.47px;}.cls-10{stroke-width:0.71px;}.cls-11{fill:#edbb21;}.cls-12{fill:#e2bd22;}.cls-13{fill:none;stroke-width:1.89px;stroke-dasharray:1.89 0.95;}.cls-14{fill:#2c343d;stroke:#e6e7e8;stroke-width:0.39px;}</style><linearGradient id="linear-gradient" x1="52.5" y1="13.5" x2="52.5" y2="103.69" gradientUnits="userSpaceOnUse"><stop offset="0" stop-color="#fff"/><stop offset="1" stop-color="#dddfe0"/></linearGradient><radialGradient id="radial-gradient" cx="50.98" cy="23.63" r="64.41" gradientTransform="translate(0)" gradientUnits="userSpaceOnUse"><stop offset="0" stop-color="#fff"/><stop offset="0.1" stop-color="#f0f3f4"/><stop offset="0.32" stop-color="#d4dce0"/><stop offset="0.55" stop-color="#c1ccd2"/><stop offset="0.77" stop-color="#b5c2ca"/><stop offset="1" stop-color="#b1bfc7"/></radialGradient><linearGradient id="linear-gradient-2" x1="48.12" y1="44.03" x2="73.05" y2="115.07" gradientUnits="userSpaceOnUse"><stop offset="0" stop-color="#fff"/><stop offset="0.65" stop-color="#b9c8d0"/><stop offset="1" stop-color="#b7c6ce"/></linearGradient></defs><g class="cls-1"><g id="Layer_2" data-name="Layer 2"><g id="Layer_3" data-name="Layer 3"><g id="Bullet_1_-_Green" data-name="Bullet 1 - Green"><circle class="cls-2" cx="52.5" cy="52.5" r="51.95"/><path class="cls-3" d="M52.5,5.15A51.41,51.41,0,1,1,1.09,56.56,51.47,51.47,0,0,1,52.5,5.15m0-1.09A52.5,52.5,0,1,0,105,56.56,52.5,52.5,0,0,0,52.5,4.06Z" transform="translate(0 -4.06)"/></g><path class="cls-4" d="M52.5,99.64A43.08,43.08,0,1,1,95.58,56.56,43.13,43.13,0,0,1,52.5,99.64Z" transform="translate(0 -4.06)"/><path class="cls-5" d="M52.5,14.77A41.8,41.8,0,1,1,10.71,56.56,41.83,41.83,0,0,1,52.5,14.77m0-2.57A44.36,44.36,0,1,0,96.86,56.56,44.36,44.36,0,0,0,52.5,12.2Z" transform="translate(0 -4.06)"/><g class="cls-6"><path class="cls-7" d="M91.69,35.79C82.83,51.47,62.25,64.11,37,67.39a91.84,91.84,0,0,1-27.6-.5,44.34,44.34,0,1,0,82.29-31.1Z" transform="translate(0 -4.06)"/></g><path class="cls-8" d="M64.78,68.68a4,4,0,0,0-2-3.45h.52a.88.88,0,0,0,0-1.76H62.28a.85.85,0,0,0-.63.27l-2-3.42a.54.54,0,0,0-.46-.26H47.38a.54.54,0,0,0-.46.26l-2,3.42a.88.88,0,0,0-.64-.27H43.26a.88.88,0,1,0,0,1.76h.52a4,4,0,0,0-2,3.45,3.86,3.86,0,0,0,.09.84v5.72a.27.27,0,0,0,.27.26h3.66a.26.26,0,0,0,.26-.26V72.7H60.5v2.54a.27.27,0,0,0,.27.26h3.66a.27.27,0,0,0,.27-.26V69.52A4.6,4.6,0,0,0,64.78,68.68Zm-17.1-7.57H58.91L61,64.67H45.63ZM59.15,70A1.2,1.2,0,0,1,58,69.07H48.62a1.2,1.2,0,0,1-1.17.94h-3.1a1.2,1.2,0,1,1,0-2.4h3.1a1.2,1.2,0,0,1,1.17.93H58a1.2,1.2,0,0,1,1.17-.93h3.1a1.2,1.2,0,0,1,0,2.4Z" transform="translate(0 -4.06)"/><path class="cls-9" d="M58,55.1l-1.14,1.14a5.66,5.66,0,0,0-8,0L47.75,55.1A7.27,7.27,0,0,1,58,55.1Z" transform="translate(0 -4.06)"/><path class="cls-9" d="M63.17,50.3,62,51.44a12.93,12.93,0,0,0-18.27,0L42.61,50.3A14.55,14.55,0,0,1,63.17,50.3Z" transform="translate(0 -4.06)"/><path class="cls-10" d="M68.31,45.24l-1.15,1.14a20.21,20.21,0,0,0-28.55,0l-1.14-1.14A21.84,21.84,0,0,1,68.31,45.24Z" transform="translate(0 -4.06)"/><path class="cls-11" d="M71.52,70.28C67.46,76.14,60.7,80.46,53,80.46a23.31,23.31,0,0,1-23-23,23.3,23.3,0,0,1,23-23c7.73,0,14.54,4.37,18.59,10.31A3.1,3.1,0,0,1,72.87,43l.07-.05.38-.2.15-.07.36-.11.18-.05a3.43,3.43,0,0,1,.56,0h0a2.59,2.59,0,0,1,.63.08c.1,0,.19.06.29.09l.28.1.09,0a27.17,27.17,0,1,0,.52,28.58,3,3,0,0,1-4.87-1.1Z" transform="translate(0 -4.06)"/><path class="cls-12" d="M72.94,43l-.07.05Z" transform="translate(0 -4.06)"/><path class="cls-12" d="M74.57,42.49a2.67,2.67,0,0,1,.64.08,2.59,2.59,0,0,0-.63-.08Z" transform="translate(0 -4.06)"/><path class="cls-12" d="M75.78,42.76l-.28-.1Z" transform="translate(0 -4.06)"/><path class="cls-12" d="M73.47,42.7l-.15.07Z" transform="translate(0 -4.06)"/><path class="cls-12" d="M74,42.54l-.18.05Z" transform="translate(0 -4.06)"/><path class="cls-8" d="M75,43.38a3,3,0,1,0,3,3.07A3,3,0,0,0,75,43.38Zm1.85,3.06a1.9,1.9,0,1,1-1.9-1.95h0a1.86,1.86,0,0,1,.33,0h0a2,2,0,0,1,.67.28h0a1.39,1.39,0,0,1,.19.15l.1.09.07.08a1.89,1.89,0,0,1,.44.91,0,0,0,0,1,0,0c0,.1,0,.21,0,.31v0Z" transform="translate(0 -4.06)"/><path class="cls-8" d="M74.6,65.1a3,3,0,1,0,3,3.07A3,3,0,0,0,74.6,65.1Zm.14,5h-.19a1.93,1.93,0,0,1,0-3.86h.15a1.93,1.93,0,1,1,0,3.86Z" transform="translate(0 -4.06)"/><path class="cls-13" d="M75.78,66.21c1.78-5.54,2.41-11.57.39-17.38" transform="translate(0 -4.06)"/><path class="cls-8" d="M18.32,64.27l-1.42,0-.19-1.12,6.22.28.24,1.39L17.36,67l-.19-1.13,1.33-.49Zm1.07.82,1.22-.41,1.33-.43v0l-1.41,0H19.24Z" transform="translate(0 -4.06)"/><path class="cls-8" d="M23.83,67.54l-3.77,1.18c-.85.27-1,.6-.94.9s.41.48,1.29.21l3.77-1.19.35,1.13L21,70.89c-1.49.47-2.48.16-2.82-1s.31-1.93,1.76-2.39l3.58-1.12Z" transform="translate(0 -4.06)"/><path class="cls-8" d="M24.21,71.74l-.45-1,1-.46,1.4,3-1,.47-.45-1-4.52,2.1-.5-1.07Z" transform="translate(0 -4.06)"/><path class="cls-8" d="M25.81,78.38c-1.95,1.21-3.16,1-3.77.05-.73-1.16.22-2.39,1.64-3.28s3-1.09,3.69,0S27,77.64,25.81,78.38ZM24.32,76.2c-1.17.73-1.64,1.32-1.38,1.72s1.13.1,2.17-.55,1.64-1.22,1.36-1.67S25.42,75.5,24.32,76.2Z" transform="translate(0 -4.06)"/><path class="cls-8" d="M28.17,82.79c.42-.41,1-1,1.48-1.37l0,0c-.56.35-1.23.72-1.66.95L26,83.4l-.56-.63L26.71,81c.3-.41.76-1,1.19-1.54v0c-.51.43-1.12.91-1.59,1.28L24.65,82,24,81.27l4.85-3.7.82.93-1.33,1.81c-.46.64-.87,1.2-1.31,1.73v0c.57-.38,1.17-.73,1.85-1.12l2-1.1.82.93-4.32,4.3-.69-.79Z" transform="translate(0 -4.06)"/><path class="cls-8" d="M30.28,85.77l-1.08.91L28.32,86l4.87-3.86,1.09.89-3,5.44-.89-.72.68-1.24Zm1.35-.08.65-1.11c.19-.33.51-.85.72-1.2h0l-1.05.93-1,.84Z" transform="translate(0 -4.06)"/><path class="cls-8" d="M35.36,85.11l-.9-.58.6-.92,2.78,1.8-.59.92-.9-.58-2.71,4.19-1-.64Z" transform="translate(0 -4.06)"/><path class="cls-8" d="M39.23,89.9,38,89.29l-.72,1.48,1.4.69-.45.92-2.46-1.2,2.66-5.46,2.37,1.15-.45.92L39,87.15l-.61,1.26,1.24.6Z" transform="translate(0 -4.06)"/><path class="cls-8" d="M41.6,87.31a5.58,5.58,0,0,1,1.17.27,2.3,2.3,0,0,1,1.42,1,3.15,3.15,0,0,1,0,2.57,3.38,3.38,0,0,1-1.61,2.18,2.55,2.55,0,0,1-1.94,0,9,9,0,0,1-.9-.37Zm-.49,5.17.2.08c.54.18,1.18-.19,1.71-1.78.4-1.19.33-2-.35-2.23a.59.59,0,0,0-.23,0Z" transform="translate(0 -4.06)"/><path class="cls-8" d="M47.37,89a5.55,5.55,0,0,1,1.2,0,2.31,2.31,0,0,1,1.6.75,3.17,3.17,0,0,1,.47,2.52,3.36,3.36,0,0,1-1.15,2.45,2.58,2.58,0,0,1-1.91.36,8.54,8.54,0,0,1-1-.19Zm.53,5.15a.72.72,0,0,0,.21,0c.56.07,1.12-.42,1.33-2.09.15-1.24-.07-2-.78-2.12h-.24Z" transform="translate(0 -4.06)"/><path class="cls-8" d="M51.75,89.44A6.34,6.34,0,0,1,53,89.29a2.41,2.41,0,0,1,1.62.42,1.59,1.59,0,0,1,.5,1.26,1.62,1.62,0,0,1-.9,1.54h0c.41.16.63.54.76,1.19a8.78,8.78,0,0,0,.41,1.64l-1.22,0a8.18,8.18,0,0,1-.34-1.45c-.11-.75-.31-1-.7-1H53l0,2.42-1.17,0ZM53,92.07h.21c.51,0,.79-.43.78-1s-.22-.88-.74-.89a1.08,1.08,0,0,0-.29.05Z" transform="translate(0 -4.06)"/><path class="cls-8" d="M57.16,89l.78,6-1.17.15-.78-6Z" transform="translate(0 -4.06)"/><path class="cls-8" d="M60.5,94.56,57.76,89,59,88.65l1,2.46c.25.61.55,1.31.79,2h0c-.09-.72-.16-1.45-.22-2.14l-.21-2.63L61.7,88l.08,6.24Z" transform="translate(0 -4.06)"/><path class="cls-8" d="M63.33,87.39l2,5.73-1.11.39-2-5.72Z" transform="translate(0 -4.06)"/><path class="cls-8" d="M67,92.5,64.36,87l1-.47,1.88,1.74c.37.34,1,.91,1.36,1.31h0c-.32-.56-.85-1.48-1.34-2.48l-.59-1.21.92-.45,2.68,5.47-1,.47-1.84-1.68a16,16,0,0,1-1.36-1.37h0c.3.53.75,1.36,1.29,2.46l.6,1.23Z" transform="translate(0 -4.06)"/><path class="cls-8" d="M74.58,87.93a4.27,4.27,0,0,1-.91.88,2.15,2.15,0,0,1-1.68.41,3.38,3.38,0,0,1-2-1.59c-1.23-1.84-.71-3.31.35-4a2.29,2.29,0,0,1,.92-.4l.4,1a1.54,1.54,0,0,0-.65.28c-.65.45-.87,1.26,0,2.57s1.58,1.33,2,1a.59.59,0,0,0,.18-.16l-.83-1.21L72,87l-.54-.8,1.34-.92Z" transform="translate(0 -4.06)"/><path class="cls-8" d="M76.44,85a2.23,2.23,0,0,0,.88-.52c.39-.39.39-.79.11-1.08s-.66-.27-1.25-.15a2.07,2.07,0,0,1-2-.41,1.74,1.74,0,0,1,.11-2.61,1.89,1.89,0,0,1,.83-.51l.58.85A1.36,1.36,0,0,0,75,81a.65.65,0,0,0-.09,1c.25.26.52.27,1.25.1a2,2,0,0,1,2,.47A1.81,1.81,0,0,1,78,85.2a2.58,2.58,0,0,1-1,.64Z" transform="translate(0 -4.06)"/><path class="cls-8" d="M80.79,82.16,79,80.7l-3.76-1.3.78-1,1.39.58c.38.16.8.35,1.21.56v0c-.3-.33-.58-.68-.85-1l-.89-1.17.76-1,2,3.37,1.85,1.49Z" transform="translate(0 -4.06)"/><path class="cls-8" d="M81.89,78.7a2.27,2.27,0,0,0,.73-.72c.29-.47.19-.86-.15-1.07s-.7-.12-1.25.15a2.08,2.08,0,0,1-2,.07,1.74,1.74,0,0,1-.51-2.57,1.94,1.94,0,0,1,.69-.69l.76.7a1.43,1.43,0,0,0-.58.54.66.66,0,0,0,.14,1c.31.19.57.13,1.25-.21a2,2,0,0,1,2,0,1.82,1.82,0,0,1,.52,2.67,2.66,2.66,0,0,1-.82.85Z" transform="translate(0 -4.06)"/><path class="cls-8" d="M80.92,72.83l-.45,1-1-.47,1.4-3,1,.47-.45,1,4.51,2.12L85.43,75Z" transform="translate(0 -4.06)"/><path class="cls-8" d="M85.16,68.35l-.44,1.3,1.57.53.49-1.47,1,.32-.87,2.59-5.76-1.93.83-2.5,1,.33-.46,1.38,1.33.44.44-1.3Z" transform="translate(0 -4.06)"/><path class="cls-8" d="M86.78,63.43c-.58-.07-1.35-.17-2-.3v0c.62.22,1.33.51,1.78.7l2,.9-.15.82-2.19.12c-.5,0-1.27,0-1.94,0v0l2,.45,2.06.47-.17,1-5.91-1.49L82.5,65l2.24-.09c.79,0,1.48-.07,2.18,0v0c-.65-.21-1.3-.46-2-.75l-2.08-.86L83,62l6,.7-.18,1Z" transform="translate(0 -4.06)"/><path class="cls-14" d="M31.29,35.41a3.73,3.73,0,0,1-.8,1.15c-1.61,1.71-3.69,1.31-5.45-.35-2.34-2.2-1.92-4.47-.7-5.77a2.88,2.88,0,0,1,1-.76l.81,1.17a2,2,0,0,0-.69.5c-.7.74-.74,2,.8,3.41s2.63,1.33,3.38.54a3.36,3.36,0,0,0,.5-.72Z" transform="translate(0 -4.06)"/><path class="cls-14" d="M33.33,28.34c2,2.53,1.8,4.31.42,5.39-1.64,1.29-3.55.19-5-1.66s-1.88-4-.27-5.29S32.12,26.8,33.33,28.34Zm-3.09,2.6c1.19,1.52,2.11,2.06,2.68,1.61s0-1.64-1-3C31,28.37,30,27.46,29.32,28S29.12,29.5,30.24,30.94Z" transform="translate(0 -4.06)"/><path class="cls-14" d="M39.42,25c1.51,2.83,1,4.56-.52,5.38-1.84,1-3.53-.44-4.62-2.5s-1.16-4.31.65-5.26S38.5,23.27,39.42,25Zm-3.49,2c.91,1.7,1.72,2.39,2.36,2.05s.33-1.61-.48-3.13c-.71-1.32-1.56-2.4-2.27-2S35.08,25.4,35.93,27Z" transform="translate(0 -4.06)"/><path class="cls-14" d="M39.67,20.64a9.59,9.59,0,0,1,1.74-.73A3.72,3.72,0,0,1,44,19.76a2.39,2.39,0,0,1,1.32,1.54,2.71,2.71,0,0,1-.11,2.19A3.4,3.4,0,0,1,43.31,25l-.34.1,1,3-1.7.55Zm2.89,3.14.28-.07A1.24,1.24,0,0,0,43.66,22a1.14,1.14,0,0,0-1.51-.91,1.35,1.35,0,0,0-.4.2Z" transform="translate(0 -4.06)"/><path class="cls-14" d="M51.17,22.7l-2.08.3.33,2.29,2.35-.35L52,26.36,47.85,27l-1.23-8.43,4-.58.21,1.42-2.19.33.28,1.93,2.08-.3Z" transform="translate(0 -4.06)"/><path class="cls-14" d="M53.09,17.91a11.07,11.07,0,0,1,2-.1,3.79,3.79,0,0,1,2.44.71,2.11,2.11,0,0,1,.67,1.79,2.25,2.25,0,0,1-1.49,2.08v0c.62.25.92.8,1.07,1.72a12.48,12.48,0,0,0,.52,2.33l-1.87-.06a10.22,10.22,0,0,1-.4-2.05c-.13-1.07-.41-1.37-1-1.39h-.27l-.11,3.39-1.78-.05Zm1.67,3.77h.32a1.2,1.2,0,0,0,1.26-1.28c0-.73-.27-1.26-1.07-1.3a1.2,1.2,0,0,0-.44,0Z" transform="translate(0 -4.06)"/><path class="cls-14" d="M60.72,25.05l-.83,1.8-1.7-.4,3.89-7.83,2.09.48L64,27.8l-1.7-.39.06-2Zm1.76-.91.1-1.81c0-.52.1-1.38.14-1.95h0c-.22.53-.56,1.35-.76,1.81l-.73,1.66Z" transform="translate(0 -4.06)"/><path class="cls-14" d="M67.52,21.8,66,21.18l.59-1.42,4.67,1.93-.58,1.42-1.51-.62-2.66,6.45-1.66-.69Z" transform="translate(0 -4.06)"/><path class="cls-14" d="M74.5,23.58l-4.42,7.28-1.53-.93L73,22.65Z" transform="translate(0 -4.06)"/><path class="cls-14" d="M72.21,32.29,76,24.38l1.54,1.25-1.8,3.26c-.45.82-1,1.74-1.49,2.6l0,0c.72-.71,1.48-1.41,2.21-2.05L79.23,27l1.53,1.24-7,5.29Z" transform="translate(0 -4.06)"/><path class="cls-14" d="M81,35.76l-1.37-1.59-1.75,1.5,1.55,1.8-1.09.93-2.72-3.16,6.46-5.54,2.61,3-1.09.93L82.16,32l-1.48,1.28,1.37,1.59Z" transform="translate(0 -4.06)"/></g></g></g></svg>