<svg xmlns="http://www.w3.org/2000/svg" xmlns:xlink="http://www.w3.org/1999/xlink" viewBox="0 0 106 105"><defs><style>.cls-1{isolation:isolate;}.cls-2{fill:url(#linear-gradient);}.cls-3{fill:#c5c7c9;}.cls-4{fill:url(#radial-gradient);}.cls-5{fill:#218791;}.cls-6{opacity:0.8;mix-blend-mode:multiply;}.cls-7{fill:url(#linear-gradient-2);}.cls-10,.cls-8,.cls-9{fill:#fff;}.cls-10,.cls-13,.cls-9{stroke:#fff;}.cls-10,.cls-13,.cls-14,.cls-9{stroke-miterlimit:10;}.cls-9{stroke-width:0.47px;}.cls-10{stroke-width:0.71px;}.cls-11{fill:#edbb21;}.cls-12{fill:#e2bd22;}.cls-13{fill:none;stroke-width:1.89px;stroke-dasharray:1.89 0.95;}.cls-14{fill:#2c343d;stroke:#e6e7e8;stroke-width:0.39px;}</style><linearGradient id="linear-gradient" x1="53" y1="13.5" x2="53" y2="103.69" gradientUnits="userSpaceOnUse"><stop offset="0" stop-color="#fff"/><stop offset="1" stop-color="#dddfe0"/></linearGradient><radialGradient id="radial-gradient" cx="51.06" cy="23.15" r="64.41" gradientTransform="translate(0)" gradientUnits="userSpaceOnUse"><stop offset="0" stop-color="#d1edfb"/><stop offset="1" stop-color="#218791"/></radialGradient><linearGradient id="linear-gradient-2" x1="49.05" y1="44.14" x2="73.98" y2="115.18" gradientUnits="userSpaceOnUse"><stop offset="0" stop-color="#fff"/><stop offset="0.98" stop-color="#218791"/></linearGradient></defs><g class="cls-1"><g id="Layer_2" data-name="Layer 2"><g id="Layer_3" data-name="Layer 3"><g id="Bullet_1_-_Green" data-name="Bullet 1 - Green"><ellipse class="cls-2" cx="53" cy="52.5" rx="52.45" ry="51.95"/><path class="cls-3" d="M53,5C81.62,5,104.9,28,104.9,56.37S81.62,107.78,53,107.78,1.1,84.72,1.1,56.37,24.38,5,53,5m0-1.1c-29.27,0-53,23.51-53,52.5s23.73,52.5,53,52.5,53-23.5,53-52.5S82.27,3.87,53,3.87Z" transform="translate(0 -3.87)"/></g><path class="cls-4" d="M52.57,99.16A43.08,43.08,0,1,1,95.65,56.08,43.13,43.13,0,0,1,52.57,99.16Z" transform="translate(0 -3.87)"/><path class="cls-5" d="M52.57,14.28a41.8,41.8,0,1,1-41.79,41.8,41.85,41.85,0,0,1,41.79-41.8m0-2.56A44.36,44.36,0,1,0,96.93,56.08,44.35,44.35,0,0,0,52.57,11.72Z" transform="translate(0 -3.87)"/><g class="cls-6"><path class="cls-7" d="M92.61,35.9C83.76,51.58,63.17,64.21,37.92,67.5a91.84,91.84,0,0,1-27.6-.5A44.34,44.34,0,1,0,92.61,35.9Z" transform="translate(0 -3.87)"/></g><path class="cls-8" d="M65.34,68.68a4,4,0,0,0-2-3.45h.53a.88.88,0,0,0,0-1.76H62.84a.85.85,0,0,0-.63.27l-2-3.42a.53.53,0,0,0-.46-.26H47.94a.53.53,0,0,0-.46.26l-2,3.42a.85.85,0,0,0-.63-.27H43.81a.88.88,0,0,0,0,1.76h.53a4,4,0,0,0-2,3.45,3.86,3.86,0,0,0,.09.84v5.72a.26.26,0,0,0,.26.26h3.67a.26.26,0,0,0,.26-.26V72.7H61.06v2.54a.26.26,0,0,0,.26.26H65a.26.26,0,0,0,.26-.26V69.52A3.86,3.86,0,0,0,65.34,68.68Zm-17.1-7.57H59.47l2.05,3.56H46.19ZM59.7,70a1.19,1.19,0,0,1-1.16-.94H49.17A1.19,1.19,0,0,1,48,70h-3.1a1.2,1.2,0,1,1,0-2.4H48a1.19,1.19,0,0,1,1.16.93h9.37a1.19,1.19,0,0,1,1.16-.93h3.1a1.2,1.2,0,1,1,0,2.4Z" transform="translate(0 -3.87)"/><path class="cls-9" d="M58.58,55.1l-1.14,1.14a5.64,5.64,0,0,0-8,0L48.31,55.1A7.25,7.25,0,0,1,58.58,55.1Z" transform="translate(0 -3.87)"/><path class="cls-9" d="M63.72,50.3l-1.14,1.14a12.93,12.93,0,0,0-18.27,0L43.17,50.3A14.54,14.54,0,0,1,63.72,50.3Z" transform="translate(0 -3.87)"/><path class="cls-10" d="M68.86,45.24l-1.14,1.14a20.21,20.21,0,0,0-28.55,0L38,45.24A21.82,21.82,0,0,1,68.86,45.24Z" transform="translate(0 -3.87)"/><path class="cls-11" d="M72.07,70.28C68,76.14,61.25,80.46,53.58,80.46a23.31,23.31,0,0,1-23-23,23.3,23.3,0,0,1,23-23c7.73,0,14.54,4.37,18.59,10.31A3,3,0,0,1,73.42,43L73.5,43l.38-.2L74,42.7l.37-.11.18-.05a3.31,3.31,0,0,1,.55,0h0a2.72,2.72,0,0,1,.63.08c.1,0,.19.06.29.09a2.15,2.15,0,0,1,.27.1l.1,0a27.18,27.18,0,1,0,.51,28.58,3,3,0,0,1-2,.81A3,3,0,0,1,72.07,70.28Z" transform="translate(0 -3.87)"/><path class="cls-12" d="M73.5,43l-.08.05Z" transform="translate(0 -3.87)"/><path class="cls-12" d="M75.13,42.49a2.74,2.74,0,0,1,.64.08,2.72,2.72,0,0,0-.63-.08Z" transform="translate(0 -3.87)"/><path class="cls-12" d="M76.33,42.76a2.15,2.15,0,0,0-.27-.1A2.15,2.15,0,0,1,76.33,42.76Z" transform="translate(0 -3.87)"/><path class="cls-12" d="M74,42.7l-.14.07Z" transform="translate(0 -3.87)"/><path class="cls-12" d="M74.57,42.54l-.18.05Z" transform="translate(0 -3.87)"/><path class="cls-8" d="M75.52,43.38a3,3,0,1,0,3,3.07A3,3,0,0,0,75.52,43.38Zm1.85,3.06a1.87,1.87,0,0,1-3.23,1.32,1.9,1.9,0,0,1,1.32-3.27h.05a1.86,1.86,0,0,1,.33,0h0a2,2,0,0,1,.67.28h0c.06,0,.12.1.18.15l.11.09a.27.27,0,0,0,.07.08,1.89,1.89,0,0,1,.44.91v0a1.65,1.65,0,0,1,0,.31v0Z" transform="translate(0 -3.87)"/><path class="cls-8" d="M75.15,65.1a3,3,0,1,0,3,3.07A3,3,0,0,0,75.15,65.1Zm.14,5H75.1a1.93,1.93,0,0,1,0-3.86h.15a1.93,1.93,0,1,1,0,3.86Z" transform="translate(0 -3.87)"/><path class="cls-13" d="M76.33,66.21c1.78-5.54,2.41-11.57.4-17.38" transform="translate(0 -3.87)"/><path class="cls-8" d="M18.87,64.27l-1.41,0-.19-1.12,6.22.28.23,1.39L17.92,67l-.19-1.13,1.32-.49Zm1.07.82,1.22-.41,1.34-.43v0l-1.4,0H19.8Z" transform="translate(0 -3.87)"/><path class="cls-8" d="M24.39,67.54l-3.77,1.18c-.85.27-1,.6-.94.9s.41.48,1.29.21l3.77-1.19.35,1.13-3.57,1.12c-1.5.47-2.48.16-2.83-1S19,68,20.45,67.54L24,66.42Z" transform="translate(0 -3.87)"/><path class="cls-8" d="M24.76,71.74l-.45-1,1-.46,1.39,3-1,.47-.45-1-4.53,2.1-.49-1.07Z" transform="translate(0 -3.87)"/><path class="cls-8" d="M26.36,78.38c-1.94,1.21-3.16,1-3.77.05-.72-1.16.23-2.39,1.65-3.28s3-1.09,3.68,0S27.55,77.64,26.36,78.38ZM24.87,76.2c-1.17.73-1.63,1.32-1.38,1.72s1.13.1,2.18-.55S27.31,76.15,27,75.7,26,75.5,24.87,76.2Z" transform="translate(0 -3.87)"/><path class="cls-8" d="M28.73,82.79c.41-.41,1-1,1.47-1.37v0c-.56.35-1.23.72-1.66.95l-2,1.05L26,82.77,27.27,81c.29-.41.75-1,1.19-1.54l0,0c-.51.43-1.11.91-1.58,1.28L25.21,82l-.67-.75,4.85-3.7.82.93-1.33,1.81c-.47.64-.87,1.2-1.32,1.73l0,0c.56-.38,1.17-.73,1.85-1.12l2-1.1.82.93-4.32,4.3-.7-.79Z" transform="translate(0 -3.87)"/><path class="cls-8" d="M30.84,85.77l-1.09.91L28.87,86l4.88-3.86,1.08.89-2.95,5.44L31,87.7l.68-1.24Zm1.34-.08.66-1.11c.18-.33.51-.85.72-1.2h0c-.3.27-.77.7-1,.93l-1,.84Z" transform="translate(0 -3.87)"/><path class="cls-8" d="M35.91,85.11,35,84.53l.59-.92,2.79,1.8-.6.92-.9-.58-2.7,4.19-1-.64Z" transform="translate(0 -3.87)"/><path class="cls-8" d="M39.79,89.9l-1.24-.61-.72,1.48,1.39.69-.45.92-2.45-1.2L39,85.72l2.36,1.15-.45.92-1.3-.64L39,88.41l1.24.6Z" transform="translate(0 -3.87)"/><path class="cls-8" d="M42.16,87.31a5.58,5.58,0,0,1,1.17.27,2.3,2.3,0,0,1,1.42,1,3.19,3.19,0,0,1,0,2.57,3.42,3.42,0,0,1-1.61,2.18,2.55,2.55,0,0,1-1.94,0,9,9,0,0,1-.9-.37Zm-.49,5.17.19.08c.54.18,1.19-.19,1.72-1.78.39-1.19.33-2-.35-2.23a.68.68,0,0,0-.23,0Z" transform="translate(0 -3.87)"/><path class="cls-8" d="M47.92,89a5.65,5.65,0,0,1,1.21,0,2.33,2.33,0,0,1,1.6.75,3.17,3.17,0,0,1,.47,2.52A3.39,3.39,0,0,1,50,94.72a2.54,2.54,0,0,1-1.9.36,8.11,8.11,0,0,1-1-.19Zm.54,5.15a.73.73,0,0,0,.2,0c.57.07,1.13-.42,1.33-2.09.16-1.24-.07-2-.77-2.12H49Z" transform="translate(0 -3.87)"/><path class="cls-8" d="M52.31,89.44a6.24,6.24,0,0,1,1.28-.15,2.39,2.39,0,0,1,1.62.42A1.56,1.56,0,0,1,55.72,91a1.63,1.63,0,0,1-.91,1.54h0c.42.16.63.54.76,1.19A9.44,9.44,0,0,0,56,95.35l-1.23,0a7.58,7.58,0,0,1-.33-1.45c-.12-.75-.31-1-.7-1h-.18l.05,2.42-1.17,0Zm1.22,2.63h.22c.51,0,.79-.43.78-1s-.22-.88-.75-.89a1,1,0,0,0-.28.05Z" transform="translate(0 -3.87)"/><path class="cls-8" d="M57.72,89l.78,6-1.17.15-.78-6Z" transform="translate(0 -3.87)"/><path class="cls-8" d="M61.05,94.56,58.32,89l1.26-.31,1,2.46c.26.61.55,1.31.8,2h0c-.09-.72-.17-1.45-.22-2.14L61,88.31l1.26-.3.07,6.24Z" transform="translate(0 -3.87)"/><path class="cls-8" d="M63.89,87.39l2,5.73-1.11.39-2-5.72Z" transform="translate(0 -3.87)"/><path class="cls-8" d="M67.59,92.5,64.92,87l1-.47,1.88,1.74c.37.34,1,.91,1.36,1.31h0c-.32-.56-.86-1.48-1.35-2.48l-.59-1.21.93-.45,2.67,5.47-1,.47L68,89.72a15.88,15.88,0,0,1-1.35-1.37h0c.3.53.75,1.36,1.29,2.46l.6,1.23Z" transform="translate(0 -3.87)"/><path class="cls-8" d="M75.13,87.93a3.84,3.84,0,0,1-.91.88,2.12,2.12,0,0,1-1.67.41,3.37,3.37,0,0,1-2-1.59c-1.22-1.84-.71-3.31.35-4a2.35,2.35,0,0,1,.92-.4l.41,1a1.54,1.54,0,0,0-.65.28c-.66.45-.87,1.26,0,2.57s1.59,1.33,2,1a.53.53,0,0,0,.17-.16L73,86.65l-.45.31-.54-.8,1.33-.92Z" transform="translate(0 -3.87)"/><path class="cls-8" d="M77,85a2.2,2.2,0,0,0,.87-.52A.71.71,0,0,0,78,83.39c-.3-.31-.65-.27-1.25-.15a2.06,2.06,0,0,1-2-.41,1.72,1.72,0,0,1,.11-2.61,1.84,1.84,0,0,1,.83-.51l.57.85a1.4,1.4,0,0,0-.69.39.66.66,0,0,0-.09,1c.26.26.52.27,1.26.1a2,2,0,0,1,2,.47,1.82,1.82,0,0,1-.13,2.71,2.49,2.49,0,0,1-1,.64Z" transform="translate(0 -3.87)"/><path class="cls-8" d="M81.34,82.16,79.53,80.7l-3.76-1.3.78-1,1.39.58c.37.16.8.35,1.2.56v0c-.29-.33-.58-.68-.85-1l-.89-1.17.76-1,2.06,3.37,1.85,1.49Z" transform="translate(0 -3.87)"/><path class="cls-8" d="M82.45,78.7a2.15,2.15,0,0,0,.72-.72c.3-.47.2-.86-.14-1.07s-.71-.12-1.26.15a2.06,2.06,0,0,1-2,.07,1.74,1.74,0,0,1-.51-2.57,2,2,0,0,1,.68-.69l.77.7a1.38,1.38,0,0,0-.58.54.66.66,0,0,0,.14,1c.31.19.57.13,1.24-.21a2,2,0,0,1,2.06,0,1.82,1.82,0,0,1,.52,2.67,2.66,2.66,0,0,1-.82.85Z" transform="translate(0 -3.87)"/><path class="cls-8" d="M81.48,72.83l-.46,1-1-.47,1.41-3,1,.47-.45,1,4.51,2.12L86,75Z" transform="translate(0 -3.87)"/><path class="cls-8" d="M85.71,68.35l-.43,1.3,1.56.53.49-1.47,1,.32-.87,2.59-5.76-1.93.83-2.5,1,.33L83,68.9l1.33.44.43-1.3Z" transform="translate(0 -3.87)"/><path class="cls-8" d="M87.33,63.43c-.57-.07-1.35-.17-2-.3v0c.62.22,1.33.51,1.77.7l2,.9-.15.82-2.19.12c-.5,0-1.28,0-1.94,0v0l2,.45,2.06.47-.18,1-5.91-1.49L83.05,65l2.25-.09c.79,0,1.48-.07,2.17,0v0c-.65-.21-1.3-.46-2-.75l-2.08-.86L83.58,62l6,.7-.19,1Z" transform="translate(0 -3.87)"/><path class="cls-14" d="M31.85,35.41a3.92,3.92,0,0,1-.8,1.15c-1.62,1.71-3.69,1.31-5.45-.35-2.34-2.2-1.93-4.47-.7-5.77a2.8,2.8,0,0,1,1-.76l.81,1.17a2,2,0,0,0-.69.5c-.7.74-.74,2,.8,3.41s2.63,1.33,3.38.54a3.76,3.76,0,0,0,.5-.72Z" transform="translate(0 -3.87)"/><path class="cls-14" d="M33.88,28.34c2,2.53,1.8,4.31.43,5.39-1.65,1.29-3.55.19-5-1.66s-1.88-4-.27-5.29S32.68,26.8,33.88,28.34Zm-3.08,2.6C32,32.46,32.9,33,33.48,32.55s0-1.64-1-3c-.93-1.18-1.95-2.09-2.59-1.59S29.68,29.5,30.8,30.94Z" transform="translate(0 -3.87)"/><path class="cls-14" d="M40,25c1.5,2.83,1,4.56-.52,5.38-1.84,1-3.53-.44-4.63-2.5s-1.15-4.31.66-5.26S39.06,23.27,40,25Zm-3.49,2c.91,1.7,1.71,2.39,2.36,2.05s.32-1.61-.48-3.13c-.71-1.32-1.56-2.4-2.28-2S35.63,25.4,36.49,27Z" transform="translate(0 -3.87)"/><path class="cls-14" d="M40.23,20.64A9.47,9.47,0,0,1,42,19.91a3.75,3.75,0,0,1,2.59-.15,2.39,2.39,0,0,1,1.32,1.54,2.75,2.75,0,0,1-.12,2.19A3.34,3.34,0,0,1,43.87,25l-.35.1,1,3-1.7.55Zm2.88,3.14.29-.07A1.24,1.24,0,0,0,44.22,22c-.23-.7-.72-1.16-1.51-.91a1.35,1.35,0,0,0-.4.2Z" transform="translate(0 -3.87)"/><path class="cls-14" d="M51.73,22.7l-2.08.3L50,25.29l2.35-.35.2,1.42L48.41,27l-1.23-8.43,4-.58.21,1.42-2.19.33.28,1.93,2.08-.3Z" transform="translate(0 -3.87)"/><path class="cls-14" d="M53.64,17.91a11.12,11.12,0,0,1,2-.1,3.79,3.79,0,0,1,2.44.71,2.09,2.09,0,0,1,.68,1.79,2.25,2.25,0,0,1-1.49,2.08v0c.62.25.92.8,1.07,1.72a12.48,12.48,0,0,0,.52,2.33l-1.88-.06a12,12,0,0,1-.4-2.05c-.12-1.07-.4-1.37-1-1.39h-.27l-.1,3.39-1.79-.05Zm1.67,3.77h.33a1.2,1.2,0,0,0,1.26-1.28c0-.73-.27-1.26-1.07-1.3a1.18,1.18,0,0,0-.44,0Z" transform="translate(0 -3.87)"/><path class="cls-14" d="M61.28,25.05l-.83,1.8-1.7-.4,3.88-7.83,2.09.48-.18,8.7-1.7-.39.06-2ZM63,24.14l.11-1.81c0-.52.1-1.38.14-1.95h0c-.23.53-.56,1.35-.76,1.81l-.74,1.66Z" transform="translate(0 -3.87)"/><path class="cls-14" d="M68.07,21.8l-1.5-.62.58-1.42,4.68,1.93-.58,1.42-1.52-.62-2.66,6.45-1.66-.69Z" transform="translate(0 -3.87)"/><path class="cls-14" d="M75.06,23.58l-4.42,7.28-1.54-.93,4.43-7.28Z" transform="translate(0 -3.87)"/><path class="cls-14" d="M72.77,32.29l3.74-7.91,1.55,1.25-1.8,3.26c-.45.82-1,1.74-1.49,2.6l0,0c.73-.71,1.49-1.41,2.22-2.05L79.79,27l1.53,1.24-7,5.29Z" transform="translate(0 -3.87)"/><path class="cls-14" d="M81.56,35.76l-1.37-1.59-1.75,1.5L80,37.47l-1.09.93-2.71-3.16,6.46-5.54,2.61,3-1.09.93L82.72,32l-1.49,1.28,1.37,1.59Z" transform="translate(0 -3.87)"/></g></g></g></svg>