<svg xmlns="http://www.w3.org/2000/svg" xmlns:xlink="http://www.w3.org/1999/xlink" viewBox="0 0 105 105"><defs><style>.cls-1{isolation:isolate;}.cls-2{fill:url(#linear-gradient);}.cls-3{fill:#c5c7c9;}.cls-4{fill:url(#radial-gradient);}.cls-5{fill:#ec1c24;}.cls-6{opacity:0.8;mix-blend-mode:multiply;}.cls-7{fill:url(#linear-gradient-2);}.cls-10,.cls-8,.cls-9{fill:#fff;}.cls-10,.cls-13,.cls-9{stroke:#fff;}.cls-10,.cls-13,.cls-14,.cls-9{stroke-miterlimit:10;}.cls-9{stroke-width:0.47px;}.cls-10{stroke-width:0.71px;}.cls-11{fill:#edbb21;}.cls-12{fill:#e2bd22;}.cls-13{fill:none;stroke-width:1.89px;stroke-dasharray:1.89 0.95;}.cls-14{fill:#2c343d;stroke:#e6e7e8;stroke-width:0.25px;}</style><linearGradient id="linear-gradient" x1="52.5" y1="13.5" x2="52.5" y2="103.69" gradientUnits="userSpaceOnUse"><stop offset="0" stop-color="#fff"/><stop offset="1" stop-color="#dddfe0"/></linearGradient><radialGradient id="radial-gradient" cx="50.98" cy="23.05" r="64.41" gradientTransform="translate(0)" gradientUnits="userSpaceOnUse"><stop offset="0.02" stop-color="#f7aa91"/><stop offset="1" stop-color="#e24b4f"/></radialGradient><linearGradient id="linear-gradient-2" x1="48.12" y1="43.46" x2="73.05" y2="114.49" gradientUnits="userSpaceOnUse"><stop offset="0" stop-color="#fff"/><stop offset="1" stop-color="#e24b4f"/></linearGradient></defs><g class="cls-1"><g id="Layer_2" data-name="Layer 2"><g id="Layer_3" data-name="Layer 3"><g id="Bullet_1_-_Green" data-name="Bullet 1 - Green"><circle class="cls-2" cx="52.5" cy="52.5" r="51.95"/><path class="cls-3" d="M52.5,4.57A51.41,51.41,0,1,1,1.09,56,51.47,51.47,0,0,1,52.5,4.57m0-1.09A52.5,52.5,0,1,0,105,56,52.5,52.5,0,0,0,52.5,3.48Z" transform="translate(0 -3.48)"/></g><path class="cls-4" d="M52.5,99.06A43.08,43.08,0,1,1,95.58,56,43.13,43.13,0,0,1,52.5,99.06Z" transform="translate(0 -3.48)"/><path class="cls-5" d="M52.5,14.19A41.8,41.8,0,1,1,10.71,56,41.84,41.84,0,0,1,52.5,14.19m0-2.57A44.36,44.36,0,1,0,96.86,56,44.36,44.36,0,0,0,52.5,11.62Z" transform="translate(0 -3.48)"/><g class="cls-6"><path class="cls-7" d="M91.68,35.21C82.83,50.89,62.24,63.53,37,66.81a91.83,91.83,0,0,1-27.6-.5,44.34,44.34,0,1,0,82.28-31.1Z" transform="translate(0 -3.48)"/></g><path class="cls-8" d="M64.42,68.59a4,4,0,0,0-2-3.46H63a.88.88,0,1,0,0-1.76h-1a.92.92,0,0,0-.64.27l-2-3.42a.54.54,0,0,0-.46-.26H47a.54.54,0,0,0-.46.26l-2,3.42a.89.89,0,0,0-.63-.27H42.89a.88.88,0,1,0,0,1.76h.52a4,4,0,0,0-2,3.46,4.69,4.69,0,0,0,.08.84v5.71a.27.27,0,0,0,.27.27h3.66a.27.27,0,0,0,.27-.27V72.6H60.14v2.54a.26.26,0,0,0,.26.27h3.66a.27.27,0,0,0,.27-.27V69.43A3.93,3.93,0,0,0,64.42,68.59ZM47.32,61H58.54l2.06,3.56H45.26Zm11.46,8.89A1.2,1.2,0,0,1,57.61,69H48.25a1.2,1.2,0,0,1-1.17.93H44a1.2,1.2,0,1,1,0-2.4h3.1a1.2,1.2,0,0,1,1.17.94h9.36a1.2,1.2,0,0,1,1.17-.94h3.1a1.2,1.2,0,1,1,0,2.4Z" transform="translate(0 -3.48)"/><path class="cls-9" d="M57.66,55l-1.14,1.14a5.67,5.67,0,0,0-8,0L47.38,55A7.28,7.28,0,0,1,57.66,55Z" transform="translate(0 -3.48)"/><path class="cls-9" d="M62.8,50.2l-1.14,1.14a13,13,0,0,0-18.28,0L42.24,50.2A14.57,14.57,0,0,1,62.8,50.2Z" transform="translate(0 -3.48)"/><path class="cls-10" d="M67.94,45.14,66.8,46.28a20.21,20.21,0,0,0-28.55,0L37.1,45.14A21.84,21.84,0,0,1,67.94,45.14Z" transform="translate(0 -3.48)"/><path class="cls-11" d="M71.15,70.18c-4.06,5.87-10.82,10.18-18.5,10.18a23.3,23.3,0,0,1-23-23,23.3,23.3,0,0,1,23-23c7.74,0,14.54,4.37,18.59,10.31a3.05,3.05,0,0,1,1.26-1.81l.07,0a3.59,3.59,0,0,1,.38-.21l.15-.06.36-.12.18,0a2.6,2.6,0,0,1,.56-.06h0a3.19,3.19,0,0,1,.63.08,1.42,1.42,0,0,1,.29.1,1.33,1.33,0,0,1,.28.1l.1,0A27.19,27.19,0,1,0,76,71.28a3,3,0,0,1-4.87-1.1Z" transform="translate(0 -3.48)"/><path class="cls-12" d="M72.57,42.88l-.07,0Z" transform="translate(0 -3.48)"/><path class="cls-12" d="M74.21,42.39a3.19,3.19,0,0,1,.63.08,3.19,3.19,0,0,0-.63-.08Z" transform="translate(0 -3.48)"/><path class="cls-12" d="M75.41,42.67a1.33,1.33,0,0,0-.28-.1Z" transform="translate(0 -3.48)"/><path class="cls-12" d="M73.1,42.61l-.15.06Z" transform="translate(0 -3.48)"/><path class="cls-12" d="M73.64,42.45l-.18,0Z" transform="translate(0 -3.48)"/><path class="cls-8" d="M74.6,43.28a3,3,0,1,0,3,3.07A3,3,0,0,0,74.6,43.28Zm1.84,3.06a1.9,1.9,0,0,1-1.9,1.91,1.87,1.87,0,0,1-1.33-.59,1.92,1.92,0,0,1-.57-1.36,1.9,1.9,0,0,1,1.9-1.9h0a1.76,1.76,0,0,1,.33,0h0a1.72,1.72,0,0,1,.67.27h0l.19.16.11.09.06.08a2,2,0,0,1,.45.9v0a1.66,1.66,0,0,1,0,.32v0Z" transform="translate(0 -3.48)"/><path class="cls-8" d="M74.23,65a3,3,0,1,0,3,3.07A3,3,0,0,0,74.23,65Zm.14,5-.13,0h-.06a1.93,1.93,0,0,1,0-3.85h.15a1.94,1.94,0,0,1,0,3.87Z" transform="translate(0 -3.48)"/><path class="cls-13" d="M75.41,66.11c1.78-5.53,2.41-11.57.4-17.38" transform="translate(0 -3.48)"/><path class="cls-8" d="M18,64.17l-1.42,0L16.35,63l6.21.28.24,1.39L17,66.86l-.19-1.13,1.33-.48ZM19,65l1.22-.41,1.33-.42v0l-1.41,0H18.87Z" transform="translate(0 -3.48)"/><path class="cls-8" d="M23.47,67.44,19.7,68.63c-.86.26-1,.6-.95.9s.41.47,1.29.2l3.77-1.18.35,1.12-3.57,1.12c-1.49.47-2.47.16-2.82-1s.31-1.94,1.76-2.39l3.58-1.13Z" transform="translate(0 -3.48)"/><path class="cls-8" d="M23.84,71.65l-.45-1,1-.46,1.4,3-1,.46-.45-1-4.52,2.1-.5-1.06Z" transform="translate(0 -3.48)"/><path class="cls-8" d="M25.44,78.28c-2,1.22-3.16,1-3.77,0-.72-1.16.23-2.39,1.64-3.28s3-1.08,3.69,0S26.62,77.54,25.44,78.28ZM24,76.1c-1.17.73-1.64,1.32-1.38,1.72s1.13.1,2.17-.55,1.64-1.22,1.36-1.66S25.06,75.41,24,76.1Z" transform="translate(0 -3.48)"/><path class="cls-8" d="M27.8,82.7c.42-.41,1-1,1.48-1.38l0,0c-.56.35-1.23.73-1.66,1l-2,1-.55-.63,1.27-1.79c.29-.41.75-1,1.18-1.54h0c-.51.42-1.12.9-1.59,1.27l-1.65,1.32-.66-.75,4.84-3.7.82.93L28,80.22c-.46.63-.87,1.19-1.31,1.73h0c.57-.38,1.17-.73,1.86-1.12l2-1.1.82.93L27,85l-.7-.78Z" transform="translate(0 -3.48)"/><path class="cls-8" d="M29.92,85.67l-1.09.91L28,85.86,32.82,82l1.09.89L31,88.33l-.89-.73.69-1.24Zm1.34-.08.65-1.11.72-1.19v0l-1,.93-1,.84Z" transform="translate(0 -3.48)"/><path class="cls-8" d="M35,85l-.9-.58.6-.92,2.78,1.8-.59.92-.9-.58-2.71,4.19-1-.64Z" transform="translate(0 -3.48)"/><path class="cls-8" d="M38.86,89.8l-1.24-.6-.72,1.48,1.4.68-.45.92-2.45-1.2,2.66-5.46,2.36,1.15-.45.92-1.3-.63-.62,1.25,1.24.61Z" transform="translate(0 -3.48)"/><path class="cls-8" d="M41.24,87.22a6.26,6.26,0,0,1,1.16.26,2.37,2.37,0,0,1,1.43,1,3.16,3.16,0,0,1,0,2.57,3.38,3.38,0,0,1-1.61,2.18,2.55,2.55,0,0,1-1.94,0,7.11,7.11,0,0,1-.9-.37Zm-.49,5.16a.46.46,0,0,0,.19.08c.54.18,1.18-.19,1.71-1.78.4-1.18.33-2-.34-2.23a.69.69,0,0,0-.24,0Z" transform="translate(0 -3.48)"/><path class="cls-8" d="M47,88.87a6.27,6.27,0,0,1,1.2,0,2.33,2.33,0,0,1,1.6.75,3.15,3.15,0,0,1,.47,2.53,3.4,3.4,0,0,1-1.15,2.45,2.53,2.53,0,0,1-1.91.35,6.31,6.31,0,0,1-1-.19ZM47.53,94l.21,0c.56.07,1.12-.42,1.33-2.08.16-1.24-.07-2-.78-2.12a.59.59,0,0,0-.23,0Z" transform="translate(0 -3.48)"/><path class="cls-8" d="M51.39,89.34a7,7,0,0,1,1.28-.14,2.35,2.35,0,0,1,1.62.42,1.57,1.57,0,0,1,.5,1.25,1.62,1.62,0,0,1-.9,1.54v0c.41.16.63.53.76,1.19a10.23,10.23,0,0,0,.41,1.64l-1.22,0a7.39,7.39,0,0,1-.33-1.45c-.12-.75-.32-1-.71-1h-.17l0,2.42-1.17,0ZM52.61,92h.21a.82.82,0,0,0,.78-1c0-.52-.22-.88-.74-.88a.81.81,0,0,0-.29,0Z" transform="translate(0 -3.48)"/><path class="cls-8" d="M56.79,88.9l.78,6-1.17.15-.77-6Z" transform="translate(0 -3.48)"/><path class="cls-8" d="M60.13,94.46l-2.73-5.6,1.26-.3,1,2.45c.25.61.55,1.31.79,2h0c-.09-.72-.16-1.45-.22-2.15l-.2-2.62,1.25-.3.08,6.24Z" transform="translate(0 -3.48)"/><path class="cls-8" d="M63,87.3,65,93l-1.11.4-2-5.73Z" transform="translate(0 -3.48)"/><path class="cls-8" d="M66.67,92.4,64,86.94l1-.48,1.89,1.74c.37.34,1,.91,1.36,1.31h0C67.9,89,67.37,88,66.88,87l-.59-1.2.92-.46,2.68,5.47-1,.47-1.84-1.67c-.41-.38-1-.95-1.36-1.38h0c.3.54.75,1.36,1.28,2.46l.6,1.23Z" transform="translate(0 -3.48)"/><path class="cls-8" d="M74.21,87.83a4.27,4.27,0,0,1-.91.88,2.14,2.14,0,0,1-1.67.42,3.45,3.45,0,0,1-2-1.59c-1.23-1.85-.71-3.31.35-4a2.29,2.29,0,0,1,.92-.4l.4,1a1.68,1.68,0,0,0-.65.28c-.65.45-.87,1.27,0,2.57s1.58,1.33,2,1a.59.59,0,0,0,.18-.16L72,86.55l-.44.31-.55-.8,1.34-.91Z" transform="translate(0 -3.48)"/><path class="cls-8" d="M76.08,84.9a2.3,2.3,0,0,0,.87-.53.71.71,0,0,0,.11-1.08c-.31-.3-.66-.27-1.25-.15a2,2,0,0,1-2-.41,1.74,1.74,0,0,1,.11-2.61,2.11,2.11,0,0,1,.83-.51l.58.85a1.48,1.48,0,0,0-.69.4.65.65,0,0,0-.09,1c.25.26.52.27,1.26.09a2,2,0,0,1,2,.47,1.82,1.82,0,0,1-.12,2.72,2.71,2.71,0,0,1-1,.64Z" transform="translate(0 -3.48)"/><path class="cls-8" d="M80.42,82.06,78.6,80.61,74.84,79.3l.78-1L77,78.9c.38.16.8.35,1.21.56h0c-.3-.33-.58-.69-.85-1l-.89-1.16.76-1,2,3.38,1.85,1.48Z" transform="translate(0 -3.48)"/><path class="cls-8" d="M81.52,78.6a2.18,2.18,0,0,0,.73-.72c.29-.47.19-.86-.15-1.07s-.7-.11-1.25.15a2.08,2.08,0,0,1-2,.07,1.73,1.73,0,0,1-.51-2.56,2,2,0,0,1,.69-.69l.76.69a1.51,1.51,0,0,0-.58.54.67.67,0,0,0,.14,1c.31.19.57.14,1.25-.21a2,2,0,0,1,2,0,1.82,1.82,0,0,1,.52,2.67,2.72,2.72,0,0,1-.82.86Z" transform="translate(0 -3.48)"/><path class="cls-8" d="M80.55,72.74l-.45,1-1-.47,1.41-3,1,.47-.46,1,4.52,2.12-.5,1.07Z" transform="translate(0 -3.48)"/><path class="cls-8" d="M84.79,68.25l-.44,1.31,1.57.52.49-1.47,1,.33-.86,2.58-5.77-1.93.83-2.49,1,.32L82.1,68.8l1.32.45.44-1.31Z" transform="translate(0 -3.48)"/><path class="cls-8" d="M86.41,63.34c-.58-.07-1.35-.17-2-.3v0c.62.22,1.33.51,1.78.71l2,.9-.15.82-2.18.12c-.51,0-1.28,0-2,0v0c.65.13,1.4.31,2,.44l2.06.47-.17,1-5.91-1.5.22-1.22,2.25-.09c.78,0,1.47-.06,2.17-.05v0c-.65-.21-1.3-.46-2-.75l-2.08-.86.22-1.22,6,.71-.18,1Z" transform="translate(0 -3.48)"/><path class="cls-14" d="M30.93,35.31a3.87,3.87,0,0,1-.81,1.15c-1.61,1.72-3.69,1.31-5.45-.35-2.33-2.2-1.92-4.47-.7-5.77a2.89,2.89,0,0,1,1-.76l.81,1.18a1.87,1.87,0,0,0-.7.49c-.7.74-.73,2,.8,3.42s2.64,1.32,3.38.53a3.21,3.21,0,0,0,.5-.71Z" transform="translate(0 -3.48)"/><path class="cls-14" d="M33,28.24c2,2.53,1.8,4.32.42,5.39-1.64,1.29-3.55.19-5-1.65s-1.88-4-.27-5.3S31.76,26.71,33,28.24Zm-3.08,2.6c1.18,1.53,2.1,2.06,2.67,1.62s.05-1.65-1-3c-.93-1.19-1.95-2.1-2.59-1.6S28.75,29.4,29.88,30.84Z" transform="translate(0 -3.48)"/><path class="cls-14" d="M39.05,24.9c1.51,2.84,1,4.56-.52,5.38-1.84,1-3.52-.44-4.62-2.5s-1.15-4.3.65-5.26C36.52,21.48,38.14,23.18,39.05,24.9Zm-3.48,2c.9,1.71,1.71,2.4,2.35,2.06s.33-1.61-.48-3.13c-.7-1.33-1.55-2.4-2.27-2S34.71,25.31,35.57,26.92Z" transform="translate(0 -3.48)"/><path class="cls-14" d="M39.31,20.54A9.89,9.89,0,0,1,41,19.81a3.74,3.74,0,0,1,2.59-.14A2.37,2.37,0,0,1,45,21.21a2.75,2.75,0,0,1-.12,2.19,3.34,3.34,0,0,1-1.89,1.46L42.6,25l1,3-1.7.54Zm2.88,3.14a2,2,0,0,0,.29-.07,1.23,1.23,0,0,0,.81-1.72c-.22-.71-.71-1.17-1.5-.92a2,2,0,0,0-.41.2Z" transform="translate(0 -3.48)"/><path class="cls-14" d="M50.8,22.6l-2.08.31.34,2.28,2.34-.34.21,1.42-4.12.6-1.23-8.42,4-.58.21,1.42-2.19.32.28,1.93,2.08-.3Z" transform="translate(0 -3.48)"/><path class="cls-14" d="M52.72,17.81a11.12,11.12,0,0,1,2-.1,3.79,3.79,0,0,1,2.44.71,2.09,2.09,0,0,1,.67,1.8,2.24,2.24,0,0,1-1.48,2.08v0c.61.26.92.8,1.06,1.73a13.19,13.19,0,0,0,.52,2.32L56,26.31a10.05,10.05,0,0,1-.4-2c-.12-1.06-.41-1.37-1-1.39h-.27l-.11,3.4-1.78-.06Zm1.67,3.78h.33A1.22,1.22,0,0,0,56,20.31c0-.73-.28-1.25-1.08-1.3a1.74,1.74,0,0,0-.43,0Z" transform="translate(0 -3.48)"/><path class="cls-14" d="M60.36,25l-.84,1.8-1.69-.39,3.88-7.84L63.8,19l-.19,8.7-1.7-.4.06-2ZM62.11,24l.1-1.8c0-.53.11-1.39.15-2h0c-.22.53-.55,1.36-.76,1.82l-.73,1.65Z" transform="translate(0 -3.48)"/><path class="cls-14" d="M67.15,21.7l-1.5-.62.58-1.41,4.68,1.93L70.32,23l-1.51-.62-2.66,6.45-1.66-.68Z" transform="translate(0 -3.48)"/><path class="cls-14" d="M74.14,23.48l-4.43,7.28-1.53-.93,4.42-7.28Z" transform="translate(0 -3.48)"/><path class="cls-14" d="M71.84,32.2l3.75-7.92,1.54,1.25-1.8,3.27c-.45.81-1,1.74-1.49,2.59l0,0c.73-.71,1.49-1.41,2.21-2.05l2.78-2.43,1.53,1.23-7,5.3Z" transform="translate(0 -3.48)"/><path class="cls-14" d="M80.63,35.66l-1.36-1.59-1.75,1.5,1.54,1.8L78,38.31l-2.71-3.17,6.46-5.54,2.61,3-1.09.94L81.8,31.9l-1.49,1.27,1.37,1.6Z" transform="translate(0 -3.48)"/></g></g></g></svg>