<svg xmlns="http://www.w3.org/2000/svg" viewBox="0 0 170.3 44.96"><defs><style>.cls-1{fill:#87b821;}.cls-1,.cls-2,.cls-3{stroke:#fff;stroke-miterlimit:10;stroke-width:0.5px;}.cls-2,.cls-3{fill:#fff;}.cls-3{opacity:0.9;}</style></defs><g id="Layer_2" data-name="Layer 2"><g id="Layer_2-2" data-name="Layer 2"><path class="cls-1" d="M170,22.59a71.81,71.81,0,0,0-.14-9.85c0-.09,0-.17,0-.25h-.05C169,5.73,166.45.19,158.72.25H11.58C3.81.21,1.24,5.74.51,12.49h0a.86.86,0,0,0,0,.16,69.91,69.91,0,0,0-.14,9.72,72,72,0,0,0,.14,9.86c0,.08,0,.17,0,.24H.52c.75,6.77,3.33,12.31,11.06,12.24H158.72c7.77,0,10.34-5.49,11.07-12.24h0a.76.76,0,0,0,0-.15A70.08,70.08,0,0,0,170,22.59Z"/><path class="cls-2" d="M37.6,25.09a4.72,4.72,0,0,0,2.46.69c1.34,0,2.13-.66,2.13-1.62s-.52-1.39-2-1.84c-1.81-.56-2.74-1.35-2.74-2.71s1.3-2.6,3.26-2.6a4.9,4.9,0,0,1,2.34.5l-.36,1a4.12,4.12,0,0,0-2-.5c-1.42,0-1.93.8-1.93,1.44,0,.86.6,1.32,2.05,1.78,1.76.57,2.67,1.31,2.67,2.81s-1,2.76-3.54,2.76a5.39,5.39,0,0,1-2.69-.69Z"/><path class="cls-2" d="M47.34,18.23H44.07V17.18h7.84v1.05H48.62v8.43H47.34Z"/><path class="cls-2" d="M53.43,23.64l-1.1,3H51l3.57-9.48h1.57l3.61,9.48H58.35l-1.14-3Zm3.5-1-1.09-2.84c-.23-.6-.38-1.09-.52-1.58h0c-.15.5-.3,1-.5,1.56l-1.08,2.86Z"/><path class="cls-2" d="M61.19,17.31a15.27,15.27,0,0,1,2.62-.21,4.3,4.3,0,0,1,3,.81,2.36,2.36,0,0,1,.76,1.79,2.5,2.5,0,0,1-1.87,2.4v0A2.51,2.51,0,0,1,67.09,24a16.71,16.71,0,0,0,.79,2.67H66.56a12,12,0,0,1-.67-2.24c-.3-1.3-.85-1.81-2-1.86h-1.4v4.1H61.19Zm1.28,4.29H64c1.41,0,2.28-.69,2.28-1.77,0-1.27-1-1.76-2.37-1.76a6,6,0,0,0-1.42.13Z"/><path class="cls-2" d="M71.64,18.23H68.37V17.18h7.84v1.05H72.92v8.43H71.64Z"/><path class="cls-2" d="M80.5,17.29a15.67,15.67,0,0,1,2.62-.19,4.28,4.28,0,0,1,2.84.81,2.57,2.57,0,0,1,.88,2A2.77,2.77,0,0,1,86.05,22a4.41,4.41,0,0,1-3.12,1,4.57,4.57,0,0,1-1.16-.11v3.77H80.5Zm1.27,4.57A4.66,4.66,0,0,0,83,22c1.63,0,2.59-.74,2.59-2s-1.07-1.88-2.46-1.88a7,7,0,0,0-1.34.11Z"/><path class="cls-2" d="M88.49,16.59h1.28V26.66H88.49Z"/><path class="cls-2" d="M96.14,26.66l-.13-.9h0a2.92,2.92,0,0,1-2.32,1.07,2,2,0,0,1-2.24-1.95c0-1.64,1.5-2.59,4.49-2.56V22.2a1.49,1.49,0,0,0-1.7-1.58,3.76,3.76,0,0,0-2,.56l-.3-.84a4.68,4.68,0,0,1,2.47-.65,2.57,2.57,0,0,1,2.8,2.9V25a10.34,10.34,0,0,0,.11,1.66Zm-.21-3.46c-1.6,0-3.2.25-3.2,1.51A1.14,1.14,0,0,0,94,25.89a2,2,0,0,0,1.88-1.18,1.37,1.37,0,0,0,.06-.39Z"/><path class="cls-2" d="M100.84,17.85v2h1.94v1h-1.94v3.54c0,.84.22,1.4,1,1.4a2.56,2.56,0,0,0,.81-.11l.06,1a3.54,3.54,0,0,1-1.21.19,1.86,1.86,0,0,1-1.43-.56,2.7,2.7,0,0,1-.5-1.8V20.83H98.46v-1h1.13V18.17Z"/><path class="cls-2" d="M104.41,26.66V20.83h-1v-1h1v-.3a3.34,3.34,0,0,1,.86-2.5,2.55,2.55,0,0,1,1.75-.64,2.85,2.85,0,0,1,1.12.21l-.15,1a2.06,2.06,0,0,0-.86-.17c-1.14,0-1.44,1-1.44,2.07v.35h1.77v1H105.7v5.83Z"/><path class="cls-2" d="M115.34,23.18a3.55,3.55,0,0,1-3.75,3.65,3.44,3.44,0,0,1-3.63-3.5,3.55,3.55,0,0,1,3.75-3.64A3.41,3.41,0,0,1,115.34,23.18Zm-6.06.1a2.39,2.39,0,0,0,2.36,2.6A2.42,2.42,0,0,0,114,23.23a2.39,2.39,0,1,0-4.75.05Z"/><path class="cls-2" d="M117,22.1c0-.88,0-1.57,0-2.24h1.12l0,1.42h.05a2.21,2.21,0,0,1,2-1.59,1.61,1.61,0,0,1,.39,0v1.18a2.37,2.37,0,0,0-.49,0,1.8,1.8,0,0,0-1.77,1.64,2.53,2.53,0,0,0-.06.56v3.59H117Z"/><path class="cls-2" d="M122.07,21.72c0-.68,0-1.29,0-1.86h1.11L123.2,21h0a2.57,2.57,0,0,1,2.35-1.35,2.19,2.19,0,0,1,2.08,1.47h0a3.05,3.05,0,0,1,.8-.92,2.58,2.58,0,0,1,1.69-.55c.9,0,2.44.56,2.44,3.13v3.84h-1.25V23c0-1.46-.6-2.21-1.65-2.21a1.81,1.81,0,0,0-1.63,1.14,1.75,1.75,0,0,0-.12.62v4.16h-1.25V22.71c0-1.2-.6-2-1.58-2A2,2,0,0,0,123.43,22a1.74,1.74,0,0,0-.11.61v4h-1.25Z"/><path class="cls-3" d="M15.19,26.12c0-.26,7-3.43,5.89-3.92l-5.89-3.4c-.78-.35-.34,1.56-.45,1.84H9.65c-.61-.12-.17,3.1-.3,3.34-.29.63,5.23.17,5.39.3.11.29-.33,2.19.45,1.84Z"/><path class="cls-3" d="M21.41,15.31H15.32c-.5,0-.25.93-.31,1.2.44,1.1,7.12-.74,7.11,1-.74,11.17,3.16,10.85-6.8,10.59-.5,0-.25.93-.31,1.2-.22.68,6.21.12,6.4.3a2.21,2.21,0,0,0,2.2-2.21c-.65-2,1.82-12.35-2.2-12.09Z"/></g></g></svg>